{
	"asset":{
		"generator":"Khronos glTF Blender I/O v4.1.62",
		"version":"2.0"
	},
	"scene":0,
	"scenes":[
		{
			"name":"Scene",
			"nodes":[
				11
			]
		}
	],
	"nodes":[
		{
			"mesh":0,
			"name":"biblio.Shape_Book_0"
		},
		{
			"mesh":1,
			"name":"biblio.Shape_Books_0"
		},
		{
			"mesh":2,
			"name":"biblio.Shape_Box_0"
		},
		{
			"mesh":3,
			"name":"biblio.Shape_Color1_0"
		},
		{
			"mesh":4,
			"name":"biblio.Shape_Pics_0"
		},
		{
			"mesh":5,
			"name":"biblio.Shape_PicsWood_0"
		},
		{
			"mesh":6,
			"name":"biblio.Shape_Wood_0"
		},
		{
			"children":[
				0,
				1,
				2,
				3,
				4,
				5,
				6
			],
			"name":"biblio.Shape"
		},
		{
			"children":[
				7
			],
			"name":"biblio",
			"translation":[
				0,
				-1.1084599464084022e-05,
				0
			]
		},
		{
			"children":[
				8
			],
			"name":"RootNode"
		},
		{
			"children":[
				9
			],
			"name":"BookCase.fbx",
			"rotation":[
				0.70710688829422,
				0,
				0,
				0.7071066498756409
			],
			"scale":[
				0.009999999776482582,
				0.010000000707805157,
				0.010000000707805157
			]
		},
		{
			"children":[
				10
			],
			"name":"Sketchfab_model",
			"rotation":[
				-0.70710688829422,
				0,
				0,
				0.7071066498756409
			]
		}
	],
	"materials":[
		{
			"doubleSided":true,
			"name":"Book",
			"pbrMetallicRoughness":{
				"baseColorTexture":{
					"index":0
				},
				"metallicFactor":0,
				"roughnessFactor":0.8390756249427795
			}
		},
		{
			"doubleSided":true,
			"name":"Books",
			"pbrMetallicRoughness":{
				"baseColorTexture":{
					"index":1
				},
				"metallicFactor":0,
				"roughnessFactor":0.8390756249427795
			}
		},
		{
			"doubleSided":true,
			"name":"material",
			"pbrMetallicRoughness":{
				"baseColorTexture":{
					"index":2
				},
				"metallicFactor":0,
				"roughnessFactor":0.8455537557601929
			}
		},
		{
			"doubleSided":true,
			"name":"Color1",
			"pbrMetallicRoughness":{
				"baseColorFactor":[
					0.749019980430603,
					0.749019980430603,
					0.749019980430603,
					1
				],
				"metallicFactor":0,
				"roughnessFactor":0.20304518938064575
			}
		},
		{
			"doubleSided":true,
			"name":"Pics",
			"pbrMetallicRoughness":{
				"baseColorTexture":{
					"index":3
				},
				"metallicFactor":0,
				"roughnessFactor":0.5214883685112
			}
		},
		{
			"doubleSided":true,
			"name":"PicsWood",
			"pbrMetallicRoughness":{
				"baseColorTexture":{
					"index":4
				},
				"metallicFactor":0,
				"roughnessFactor":0.5440986156463623
			}
		},
		{
			"doubleSided":true,
			"name":"Wood",
			"pbrMetallicRoughness":{
				"baseColorTexture":{
					"index":5
				},
				"metallicFactor":0,
				"roughnessFactor":0.6620967984199524
			}
		}
	],
	"meshes":[
		{
			"name":"biblio.Shape_Book_0",
			"primitives":[
				{
					"attributes":{
						"POSITION":0,
						"NORMAL":1,
						"TEXCOORD_0":2
					},
					"indices":3,
					"material":0
				}
			]
		},
		{
			"name":"biblio.Shape_Books_0",
			"primitives":[
				{
					"attributes":{
						"POSITION":4,
						"NORMAL":5,
						"TEXCOORD_0":6
					},
					"indices":7,
					"material":1
				}
			]
		},
		{
			"name":"biblio.Shape_Box_0",
			"primitives":[
				{
					"attributes":{
						"POSITION":8,
						"NORMAL":9,
						"TEXCOORD_0":10
					},
					"indices":11,
					"material":2
				}
			]
		},
		{
			"name":"biblio.Shape_Color1_0",
			"primitives":[
				{
					"attributes":{
						"POSITION":12,
						"NORMAL":13,
						"TEXCOORD_0":14
					},
					"indices":15,
					"material":3
				}
			]
		},
		{
			"name":"biblio.Shape_Pics_0",
			"primitives":[
				{
					"attributes":{
						"POSITION":16,
						"NORMAL":17,
						"TEXCOORD_0":18
					},
					"indices":19,
					"material":4
				}
			]
		},
		{
			"name":"biblio.Shape_PicsWood_0",
			"primitives":[
				{
					"attributes":{
						"POSITION":20,
						"NORMAL":21,
						"TEXCOORD_0":22
					},
					"indices":23,
					"material":5
				}
			]
		},
		{
			"name":"biblio.Shape_Wood_0",
			"primitives":[
				{
					"attributes":{
						"POSITION":24,
						"NORMAL":25,
						"TEXCOORD_0":26,
						"TEXCOORD_1":27
					},
					"indices":28,
					"material":6
				}
			]
		}
	],
	"textures":[
		{
			"sampler":0,
			"source":0
		},
		{
			"sampler":0,
			"source":1
		},
		{
			"sampler":0,
			"source":2
		},
		{
			"sampler":0,
			"source":3
		},
		{
			"sampler":0,
			"source":4
		},
		{
			"sampler":0,
			"source":5
		}
	],
	"images":[
		{
			"mimeType":"image/jpeg",
			"name":"Image_2",
			"uri":"Image_2.jpg"
		},
		{
			"mimeType":"image/jpeg",
			"name":"Image_0",
			"uri":"Image_0.jpg"
		},
		{
			"mimeType":"image/jpeg",
			"name":"Image_5",
			"uri":"Image_5.jpg"
		},
		{
			"mimeType":"image/jpeg",
			"name":"Image_3",
			"uri":"Image_3.jpg"
		},
		{
			"mimeType":"image/jpeg",
			"name":"Image_4",
			"uri":"Image_4.jpg"
		},
		{
			"mimeType":"image/jpeg",
			"name":"Image_1",
			"uri":"Image_1.jpg"
		}
	],
	"accessors":[
		{
			"bufferView":0,
			"componentType":5126,
			"count":340,
			"max":[
				-382.73980712890625,
				115.61329650878906,
				305.380615234375
			],
			"min":[
				-398.69329833984375,
				93.92890167236328,
				294.6304931640625
			],
			"type":"VEC3"
		},
		{
			"bufferView":1,
			"componentType":5126,
			"count":340,
			"type":"VEC3"
		},
		{
			"bufferView":2,
			"componentType":5126,
			"count":340,
			"type":"VEC2"
		},
		{
			"bufferView":3,
			"componentType":5123,
			"count":1044,
			"type":"SCALAR"
		},
		{
			"bufferView":4,
			"componentType":5126,
			"count":9554,
			"max":[
				-376.57818603515625,
				115.90840148925781,
				401.6346130371094
			],
			"min":[
				-403.87860107421875,
				9.251800537109375,
				272.8764953613281
			],
			"type":"VEC3"
		},
		{
			"bufferView":5,
			"componentType":5126,
			"count":9554,
			"type":"VEC3"
		},
		{
			"bufferView":6,
			"componentType":5126,
			"count":9554,
			"type":"VEC2"
		},
		{
			"bufferView":7,
			"componentType":5123,
			"count":30276,
			"type":"SCALAR"
		},
		{
			"bufferView":8,
			"componentType":5126,
			"count":1452,
			"max":[
				-375.8547058105469,
				109.04239654541016,
				397.0400085449219
			],
			"min":[
				-403.69879150390625,
				9.250399589538574,
				324.68438720703125
			],
			"type":"VEC3"
		},
		{
			"bufferView":9,
			"componentType":5126,
			"count":1452,
			"type":"VEC3"
		},
		{
			"bufferView":10,
			"componentType":5126,
			"count":1452,
			"type":"VEC2"
		},
		{
			"bufferView":11,
			"componentType":5123,
			"count":3348,
			"type":"SCALAR"
		},
		{
			"bufferView":12,
			"componentType":5126,
			"count":192,
			"max":[
				-378.54791259765625,
				124.04789733886719,
				406.656005859375
			],
			"min":[
				-401.91070556640625,
				-0.020099999383091927,
				265.8247985839844
			],
			"type":"VEC3"
		},
		{
			"bufferView":13,
			"componentType":5126,
			"count":192,
			"type":"VEC3"
		},
		{
			"bufferView":14,
			"componentType":5126,
			"count":192,
			"type":"VEC2"
		},
		{
			"bufferView":15,
			"componentType":5123,
			"count":432,
			"type":"SCALAR"
		},
		{
			"bufferView":16,
			"componentType":5126,
			"count":24,
			"max":[
				-385.5216064453125,
				110.43509674072266,
				351.10321044921875
			],
			"min":[
				-396.8240966796875,
				65.98980712890625,
				309.9704895019531
			],
			"type":"VEC3"
		},
		{
			"bufferView":17,
			"componentType":5126,
			"count":24,
			"type":"VEC3"
		},
		{
			"bufferView":18,
			"componentType":5126,
			"count":24,
			"type":"VEC2"
		},
		{
			"bufferView":19,
			"componentType":5123,
			"count":36,
			"type":"SCALAR"
		},
		{
			"bufferView":20,
			"componentType":5126,
			"count":456,
			"max":[
				-384.6393127441406,
				110.95570373535156,
				351.19488525390625
			],
			"min":[
				-396.8240966796875,
				65.95060729980469,
				309.8743896484375
			],
			"type":"VEC3"
		},
		{
			"bufferView":21,
			"componentType":5126,
			"count":456,
			"type":"VEC3"
		},
		{
			"bufferView":22,
			"componentType":5126,
			"count":456,
			"type":"VEC2"
		},
		{
			"bufferView":23,
			"componentType":5123,
			"count":828,
			"type":"SCALAR"
		},
		{
			"bufferView":24,
			"componentType":5126,
			"count":226,
			"max":[
				-372.8410949707031,
				122.91680145263672,
				412.489013671875
			],
			"min":[
				-407.67779541015625,
				6.421599864959717,
				259.9258117675781
			],
			"type":"VEC3"
		},
		{
			"bufferView":25,
			"componentType":5126,
			"count":226,
			"type":"VEC3"
		},
		{
			"bufferView":26,
			"componentType":5126,
			"count":226,
			"type":"VEC2"
		},
		{
			"bufferView":27,
			"componentType":5126,
			"count":226,
			"type":"VEC2"
		},
		{
			"bufferView":28,
			"componentType":5123,
			"count":540,
			"type":"SCALAR"
		}
	],
	"bufferViews":[
		{
			"buffer":0,
			"byteLength":4080,
			"byteOffset":0,
			"target":34962
		},
		{
			"buffer":0,
			"byteLength":4080,
			"byteOffset":4080,
			"target":34962
		},
		{
			"buffer":0,
			"byteLength":2720,
			"byteOffset":8160,
			"target":34962
		},
		{
			"buffer":0,
			"byteLength":2088,
			"byteOffset":10880,
			"target":34963
		},
		{
			"buffer":0,
			"byteLength":114648,
			"byteOffset":12968,
			"target":34962
		},
		{
			"buffer":0,
			"byteLength":114648,
			"byteOffset":127616,
			"target":34962
		},
		{
			"buffer":0,
			"byteLength":76432,
			"byteOffset":242264,
			"target":34962
		},
		{
			"buffer":0,
			"byteLength":60552,
			"byteOffset":318696,
			"target":34963
		},
		{
			"buffer":0,
			"byteLength":17424,
			"byteOffset":379248,
			"target":34962
		},
		{
			"buffer":0,
			"byteLength":17424,
			"byteOffset":396672,
			"target":34962
		},
		{
			"buffer":0,
			"byteLength":11616,
			"byteOffset":414096,
			"target":34962
		},
		{
			"buffer":0,
			"byteLength":6696,
			"byteOffset":425712,
			"target":34963
		},
		{
			"buffer":0,
			"byteLength":2304,
			"byteOffset":432408,
			"target":34962
		},
		{
			"buffer":0,
			"byteLength":2304,
			"byteOffset":434712,
			"target":34962
		},
		{
			"buffer":0,
			"byteLength":1536,
			"byteOffset":437016,
			"target":34962
		},
		{
			"buffer":0,
			"byteLength":864,
			"byteOffset":438552,
			"target":34963
		},
		{
			"buffer":0,
			"byteLength":288,
			"byteOffset":439416,
			"target":34962
		},
		{
			"buffer":0,
			"byteLength":288,
			"byteOffset":439704,
			"target":34962
		},
		{
			"buffer":0,
			"byteLength":192,
			"byteOffset":439992,
			"target":34962
		},
		{
			"buffer":0,
			"byteLength":72,
			"byteOffset":440184,
			"target":34963
		},
		{
			"buffer":0,
			"byteLength":5472,
			"byteOffset":440256,
			"target":34962
		},
		{
			"buffer":0,
			"byteLength":5472,
			"byteOffset":445728,
			"target":34962
		},
		{
			"buffer":0,
			"byteLength":3648,
			"byteOffset":451200,
			"target":34962
		},
		{
			"buffer":0,
			"byteLength":1656,
			"byteOffset":454848,
			"target":34963
		},
		{
			"buffer":0,
			"byteLength":2712,
			"byteOffset":456504,
			"target":34962
		},
		{
			"buffer":0,
			"byteLength":2712,
			"byteOffset":459216,
			"target":34962
		},
		{
			"buffer":0,
			"byteLength":1808,
			"byteOffset":461928,
			"target":34962
		},
		{
			"buffer":0,
			"byteLength":1808,
			"byteOffset":463736,
			"target":34962
		},
		{
			"buffer":0,
			"byteLength":1080,
			"byteOffset":465544,
			"target":34963
		}
	],
	"samplers":[
		{
			"magFilter":9729,
			"minFilter":9987
		}
	],
	"buffers":[
		{
			"byteLength":466624,
			"uri":"Bookshelf1.bin"
		}
	]
}
