{
	"asset":{
		"generator":"Khronos glTF Blender I/O v4.2.60",
		"version":"2.0"
	},
	"scene":0,
	"scenes":[
		{
			"name":"Scene",
			"nodes":[
				9
			]
		}
	],
	"nodes":[
		{
			"name":"Object_7"
		},
		{
			"children":[
				0
			],
			"name":"Camera.001",
			"rotation":[
				-0.2125573456287384,
				0.9047969579696655,
				-0.08438928425312042,
				0.35922178626060486
			],
			"scale":[
				99.9999771118164,
				100,
				99.9999771118164
			],
			"translation":[
				735.8892211914062,
				495.8309020996094,
				692.5790405273438
			]
		},
		{
			"mesh":0,
			"name":"Cylinder.005_Material.001_0",
			"translation":[
				5.602836608886719e-06,
				-1.6450881958007812e-05,
				0
			]
		},
		{
			"children":[
				2
			],
			"name":"Cylinder.005",
			"rotation":[
				-0.4600447714328766,
				-0.5267124176025391,
				0.478219598531723,
				0.5312615633010864
			],
			"scale":[
				-1.3057430982589722,
				-1.0716127157211304,
				-16.341472625732422
			],
			"translation":[
				-106.97129821777344,
				30.371261596679688,
				97.87432098388672
			]
		},
		{
			"name":"Object_5"
		},
		{
			"children":[
				4
			],
			"name":"Object_4",
			"rotation":[
				0.7071068286895752,
				0,
				0,
				0.7071068286895752
			]
		},
		{
			"children":[
				5
			],
			"name":"Light.001",
			"rotation":[
				-0.5709474682807922,
				-0.27217134833335876,
				-0.7558803558349609,
				0.1690758317708969
			],
			"scale":[
				99.99999237060547,
				99.99999237060547,
				100
			],
			"translation":[
				407.62457275390625,
				-395.4156799316406,
				158.13595581054688
			]
		},
		{
			"children":[
				1,
				3,
				6
			],
			"name":"RootNode"
		},
		{
			"children":[
				7
			],
			"name":"ShelfModel.fbx",
			"rotation":[
				0.70710688829422,
				0,
				0,
				0.7071066498756409
			],
			"scale":[
				0.009999999776482582,
				0.009999998845160007,
				0.009999998845160007
			]
		},
		{
			"children":[
				8
			],
			"name":"Sketchfab_model",
			"rotation":[
				-0.70710688829422,
				0,
				0,
				0.7071066498756409
			]
		}
	],
	"materials":[
		{
			"doubleSided":true,
			"name":"Material.001",
			"pbrMetallicRoughness":{
				"metallicFactor":0,
				"roughnessFactor":0.8211145401000977
			}
		},
		{
			"doubleSided":true,
			"name":"Cube.002__0",
			"pbrMetallicRoughness":{
				"roughnessFactor":0.007996976375579834
			}
		},
		{
			"doubleSided":true,
			"name":"Material.002",
			"pbrMetallicRoughness":{
				"metallicFactor":0,
				"roughnessFactor":0.8211145401000977
			}
		}
	],
	"meshes":[
		{
			"name":"Cylinder.005_Material.001_0",
			"primitives":[
				{
					"attributes":{
						"POSITION":0,
						"NORMAL":1,
						"TEXCOORD_0":2
					},
					"indices":3,
					"material":0
				},
				{
					"attributes":{
						"POSITION":4,
						"NORMAL":5,
						"TEXCOORD_0":6
					},
					"indices":7,
					"material":1
				},
				{
					"attributes":{
						"POSITION":8,
						"NORMAL":9,
						"TEXCOORD_0":10
					},
					"indices":11,
					"material":2
				}
			]
		}
	],
	"accessors":[
		{
			"bufferView":0,
			"componentType":5126,
			"count":8607,
			"max":[
				9.098947525024414,
				32.28327941894531,
				1.271201491355896
			],
			"min":[
				-109.48655700683594,
				-123.25022888183594,
				-1.0438129901885986
			],
			"type":"VEC3"
		},
		{
			"bufferView":1,
			"componentType":5126,
			"count":8607,
			"type":"VEC3"
		},
		{
			"bufferView":2,
			"componentType":5126,
			"count":8607,
			"type":"VEC2"
		},
		{
			"bufferView":3,
			"componentType":5123,
			"count":11760,
			"type":"SCALAR"
		},
		{
			"bufferView":4,
			"componentType":5126,
			"count":72,
			"max":[
				8.162353515625,
				23.224891662597656,
				1.254988670349121
			],
			"min":[
				-63.28648376464844,
				-114.94001007080078,
				-0.976331353187561
			],
			"type":"VEC3"
		},
		{
			"bufferView":5,
			"componentType":5126,
			"count":72,
			"type":"VEC3"
		},
		{
			"bufferView":6,
			"componentType":5126,
			"count":72,
			"type":"VEC2"
		},
		{
			"bufferView":7,
			"componentType":5123,
			"count":108,
			"type":"SCALAR"
		},
		{
			"bufferView":8,
			"componentType":5126,
			"count":22476,
			"max":[
				-36.30074691772461,
				25.481266021728516,
				1.3493764400482178
			],
			"min":[
				-64.72984313964844,
				-116.33772277832031,
				-1.104569435119629
			],
			"type":"VEC3"
		},
		{
			"bufferView":9,
			"componentType":5126,
			"count":22476,
			"type":"VEC3"
		},
		{
			"bufferView":10,
			"componentType":5126,
			"count":22476,
			"type":"VEC2"
		},
		{
			"bufferView":11,
			"componentType":5123,
			"count":28800,
			"type":"SCALAR"
		}
	],
	"bufferViews":[
		{
			"buffer":0,
			"byteLength":103284,
			"byteOffset":0,
			"target":34962
		},
		{
			"buffer":0,
			"byteLength":103284,
			"byteOffset":103284,
			"target":34962
		},
		{
			"buffer":0,
			"byteLength":68856,
			"byteOffset":206568,
			"target":34962
		},
		{
			"buffer":0,
			"byteLength":23520,
			"byteOffset":275424,
			"target":34963
		},
		{
			"buffer":0,
			"byteLength":864,
			"byteOffset":298944,
			"target":34962
		},
		{
			"buffer":0,
			"byteLength":864,
			"byteOffset":299808,
			"target":34962
		},
		{
			"buffer":0,
			"byteLength":576,
			"byteOffset":300672,
			"target":34962
		},
		{
			"buffer":0,
			"byteLength":216,
			"byteOffset":301248,
			"target":34963
		},
		{
			"buffer":0,
			"byteLength":269712,
			"byteOffset":301464,
			"target":34962
		},
		{
			"buffer":0,
			"byteLength":269712,
			"byteOffset":571176,
			"target":34962
		},
		{
			"buffer":0,
			"byteLength":179808,
			"byteOffset":840888,
			"target":34962
		},
		{
			"buffer":0,
			"byteLength":57600,
			"byteOffset":1020696,
			"target":34963
		}
	],
	"buffers":[
		{
			"byteLength":1078296,
			"uri":"scene.bin"
		}
	]
}
