{
	"asset":{
		"generator":"Khronos glTF Blender I/O v4.2.60",
		"version":"2.0"
	},
	"scene":0,
	"scenes":[
		{
			"name":"Scene",
			"nodes":[
				11
			]
		}
	],
	"nodes":[
		{
			"name":"Object_7"
		},
		{
			"children":[
				0
			],
			"name":"Camera.001",
			"rotation":[
				-0.2125573754310608,
				0.9047970771789551,
				-0.08438929170370102,
				0.35922178626060486
			],
			"scale":[
				99.99998474121094,
				100,
				99.9999771118164
			],
			"translation":[
				735.88916015625,
				495.83087158203125,
				692.5790405273438
			]
		},
		{
			"name":"Cube.002",
			"rotation":[
				0,
				0.7071066498756409,
				0.70710688829422,
				1.3767881057447084e-07
			],
			"scale":[
				-16.228635787963867,
				-31.100627899169922,
				-0.8102169036865234
			],
			"translation":[
				-106.49053955078125,
				118.72885131835938,
				15.975388526916504
			]
		},
		{
			"mesh":0,
			"name":"Cylinder.005_Material.001_0",
			"translation":[
				2.384185791015625e-06,
				-5.0067901611328125e-06,
				0
			]
		},
		{
			"children":[
				3
			],
			"name":"Cylinder.005",
			"rotation":[
				-0.4600447416305542,
				-0.5267124176025391,
				0.478219598531723,
				0.5312615633010864
			],
			"scale":[
				-1.3057429790496826,
				-1.0716127157211304,
				-16.34147071838379
			],
			"translation":[
				-106.9712905883789,
				30.371259689331055,
				97.87431335449219
			]
		},
		{
			"name":"Object_5"
		},
		{
			"children":[
				5
			],
			"name":"Object_4",
			"rotation":[
				0.7071068286895752,
				0,
				0,
				0.7071068286895752
			]
		},
		{
			"children":[
				6
			],
			"name":"Light.001",
			"rotation":[
				-0.5709474682807922,
				-0.27217134833335876,
				-0.7558803558349609,
				0.1690758317708969
			],
			"scale":[
				99.99999237060547,
				99.99999237060547,
				99.99999237060547
			],
			"translation":[
				407.6245422363281,
				-395.4156799316406,
				158.13595581054688
			]
		},
		{
			"name":"Sphere.006",
			"rotation":[
				-0.70710688829422,
				0,
				0,
				0.7071066498756409
			],
			"scale":[
				-2.3401033878326416,
				-2.3401026725769043,
				-2.3401026725769043
			],
			"translation":[
				-91.17510986328125,
				84.31267547607422,
				129.14559936523438
			]
		},
		{
			"children":[
				1,
				2,
				4,
				7,
				8
			],
			"name":"RootNode"
		},
		{
			"children":[
				9
			],
			"name":"ShelfModel.fbx",
			"rotation":[
				0.70710688829422,
				0,
				0,
				0.7071066498756409
			],
			"scale":[
				0.009999999776482582,
				0.009999999776482582,
				0.009999999776482582
			]
		},
		{
			"children":[
				10
			],
			"name":"Sketchfab_model",
			"rotation":[
				-0.70710688829422,
				0,
				0,
				0.7071066498756409
			]
		}
	],
	"materials":[
		{
			"doubleSided":true,
			"name":"Material.001",
			"pbrMetallicRoughness":{
				"baseColorTexture":{
					"index":0
				},
				"metallicFactor":0,
				"roughnessFactor":0.8211145401000977
			}
		},
		{
			"doubleSided":true,
			"name":"Cube.002__0",
			"pbrMetallicRoughness":{
				"baseColorTexture":{
					"index":1
				},
				"metallicRoughnessTexture":{
					"index":2
				},
				"roughnessFactor":0.007996976375579834
			}
		},
		{
			"doubleSided":true,
			"name":"Material.002",
			"pbrMetallicRoughness":{
				"baseColorTexture":{
					"index":3
				},
				"metallicFactor":0,
				"roughnessFactor":0.8211145401000977
			}
		}
	],
	"meshes":[
		{
			"name":"Cylinder.005_Material.001_0",
			"primitives":[
				{
					"attributes":{
						"POSITION":0,
						"NORMAL":1,
						"TEXCOORD_0":2
					},
					"indices":3,
					"material":0
				},
				{
					"attributes":{
						"POSITION":4,
						"NORMAL":5,
						"TEXCOORD_0":6
					},
					"indices":7,
					"material":1
				},
				{
					"attributes":{
						"POSITION":8,
						"NORMAL":9,
						"TEXCOORD_0":10
					},
					"indices":11,
					"material":2
				}
			]
		}
	],
	"textures":[
		{
			"sampler":0,
			"source":0
		},
		{
			"sampler":0,
			"source":1
		},
		{
			"sampler":0,
			"source":2
		},
		{
			"sampler":0,
			"source":3
		}
	],
	"images":[
		{
			"mimeType":"image/png",
			"name":"Image_2",
			"uri":"Image_2.png"
		},
		{
			"mimeType":"image/jpeg",
			"name":"Image_0",
			"uri":"Image_0.jpg"
		},
		{
			"mimeType":"image/png",
			"name":"Image_1",
			"uri":"Image_1.png"
		},
		{
			"mimeType":"image/png",
			"name":"Image_3",
			"uri":"Image_3.png"
		}
	],
	"accessors":[
		{
			"bufferView":0,
			"componentType":5126,
			"count":8600,
			"max":[
				9.098947525024414,
				32.28327941894531,
				1.271201491355896
			],
			"min":[
				-109.48655700683594,
				-123.25022888183594,
				-1.0438129901885986
			],
			"type":"VEC3"
		},
		{
			"bufferView":1,
			"componentType":5126,
			"count":8600,
			"type":"VEC3"
		},
		{
			"bufferView":2,
			"componentType":5126,
			"count":8600,
			"type":"VEC2"
		},
		{
			"bufferView":3,
			"componentType":5123,
			"count":11760,
			"type":"SCALAR"
		},
		{
			"bufferView":4,
			"componentType":5126,
			"count":72,
			"max":[
				8.162353515625,
				23.224891662597656,
				1.254988670349121
			],
			"min":[
				-63.28648376464844,
				-114.94001007080078,
				-0.976331353187561
			],
			"type":"VEC3"
		},
		{
			"bufferView":5,
			"componentType":5126,
			"count":72,
			"type":"VEC3"
		},
		{
			"bufferView":6,
			"componentType":5126,
			"count":72,
			"type":"VEC2"
		},
		{
			"bufferView":7,
			"componentType":5123,
			"count":108,
			"type":"SCALAR"
		},
		{
			"bufferView":8,
			"componentType":5126,
			"count":22476,
			"max":[
				-36.30074691772461,
				25.481266021728516,
				1.3493764400482178
			],
			"min":[
				-64.72984313964844,
				-116.33772277832031,
				-1.104569435119629
			],
			"type":"VEC3"
		},
		{
			"bufferView":9,
			"componentType":5126,
			"count":22476,
			"type":"VEC3"
		},
		{
			"bufferView":10,
			"componentType":5126,
			"count":22476,
			"type":"VEC2"
		},
		{
			"bufferView":11,
			"componentType":5123,
			"count":28800,
			"type":"SCALAR"
		}
	],
	"bufferViews":[
		{
			"buffer":0,
			"byteLength":103200,
			"byteOffset":0,
			"target":34962
		},
		{
			"buffer":0,
			"byteLength":103200,
			"byteOffset":103200,
			"target":34962
		},
		{
			"buffer":0,
			"byteLength":68800,
			"byteOffset":206400,
			"target":34962
		},
		{
			"buffer":0,
			"byteLength":23520,
			"byteOffset":275200,
			"target":34963
		},
		{
			"buffer":0,
			"byteLength":864,
			"byteOffset":298720,
			"target":34962
		},
		{
			"buffer":0,
			"byteLength":864,
			"byteOffset":299584,
			"target":34962
		},
		{
			"buffer":0,
			"byteLength":576,
			"byteOffset":300448,
			"target":34962
		},
		{
			"buffer":0,
			"byteLength":216,
			"byteOffset":301024,
			"target":34963
		},
		{
			"buffer":0,
			"byteLength":269712,
			"byteOffset":301240,
			"target":34962
		},
		{
			"buffer":0,
			"byteLength":269712,
			"byteOffset":570952,
			"target":34962
		},
		{
			"buffer":0,
			"byteLength":179808,
			"byteOffset":840664,
			"target":34962
		},
		{
			"buffer":0,
			"byteLength":57600,
			"byteOffset":1020472,
			"target":34963
		}
	],
	"samplers":[
		{
			"magFilter":9729,
			"minFilter":9987
		}
	],
	"buffers":[
		{
			"byteLength":1078072,
			"uri":"shelf5.bin"
		}
	]
}
