{
	"asset":{
		"generator":"Khronos glTF Blender I/O v4.1.62",
		"version":"2.0"
	},
	"extensionsUsed":[
		"KHR_materials_transmission",
		"KHR_materials_specular"
	],
	"scene":0,
	"scenes":[
		{
			"name":"Scene",
			"nodes":[
				0
			]
		}
	],
	"nodes":[
		{
			"mesh":0,
			"name":"Box001",
			"rotation":[
				0.70710688829422,
				0,
				0,
				0.7071066498756409
			]
		}
	],
	"materials":[
		{
			"doubleSided":true,
			"name":"Material.002",
			"pbrMetallicRoughness":{
				"baseColorFactor":[
					0.04666483402252197,
					0.018500234931707382,
					0.01298303809016943,
					1
				],
				"metallicFactor":0,
				"roughnessFactor":0.5
			}
		},
		{
			"doubleSided":true,
			"extensions":{
				"KHR_materials_transmission":{
					"transmissionFactor":1
				},
				"KHR_materials_specular":{
					"specularFactor":0.699999988079071
				}
			},
			"name":"wire_180180180",
			"pbrMetallicRoughness":{
				"baseColorFactor":[
					0.1912006437778473,
					0.1070232167840004,
					0.03433984890580177,
					1
				],
				"metallicFactor":0,
				"roughnessFactor":0.8211145401000977
			}
		},
		{
			"doubleSided":true,
			"name":"Material.001",
			"pbrMetallicRoughness":{
				"baseColorFactor":[
					0.25818145275115967,
					0.1499599665403366,
					0.10702316462993622,
					1
				],
				"metallicFactor":0,
				"roughnessFactor":0.5
			}
		}
	],
	"meshes":[
		{
			"name":"Box001",
			"primitives":[
				{
					"attributes":{
						"POSITION":0,
						"NORMAL":1,
						"TEXCOORD_0":2
					},
					"indices":3,
					"material":0
				},
				{
					"attributes":{
						"POSITION":4,
						"NORMAL":5,
						"TEXCOORD_0":6
					},
					"indices":7,
					"material":1
				},
				{
					"attributes":{
						"POSITION":8,
						"NORMAL":9,
						"TEXCOORD_0":10
					},
					"indices":11,
					"material":2
				}
			]
		}
	],
	"accessors":[
		{
			"bufferView":0,
			"componentType":5126,
			"count":212,
			"max":[
				59.497703552246094,
				14.411198616027832,
				-5.387800216674805
			],
			"min":[
				13.145500183105469,
				4.230500221252441,
				-15.253399848937988
			],
			"type":"VEC3"
		},
		{
			"bufferView":1,
			"componentType":5126,
			"count":212,
			"type":"VEC3"
		},
		{
			"bufferView":2,
			"componentType":5126,
			"count":212,
			"type":"VEC2"
		},
		{
			"bufferView":3,
			"componentType":5123,
			"count":336,
			"type":"SCALAR"
		},
		{
			"bufferView":4,
			"componentType":5126,
			"count":240,
			"max":[
				59.2135009765625,
				4.525800704956055,
				-5.662500381469727
			],
			"min":[
				13.40999984741211,
				4.294000148773193,
				-14.91710090637207
			],
			"type":"VEC3"
		},
		{
			"bufferView":5,
			"componentType":5126,
			"count":240,
			"type":"VEC3"
		},
		{
			"bufferView":6,
			"componentType":5126,
			"count":240,
			"type":"VEC2"
		},
		{
			"bufferView":7,
			"componentType":5123,
			"count":372,
			"type":"SCALAR"
		},
		{
			"bufferView":8,
			"componentType":5126,
			"count":510,
			"max":[
				56.88240051269531,
				13.826800346374512,
				0.053556136786937714
			],
			"min":[
				16.025299072265625,
				5.0503997802734375,
				-5.270199775695801
			],
			"type":"VEC3"
		},
		{
			"bufferView":9,
			"componentType":5126,
			"count":510,
			"type":"VEC3"
		},
		{
			"bufferView":10,
			"componentType":5126,
			"count":510,
			"type":"VEC2"
		},
		{
			"bufferView":11,
			"componentType":5123,
			"count":2904,
			"type":"SCALAR"
		}
	],
	"bufferViews":[
		{
			"buffer":0,
			"byteLength":2544,
			"byteOffset":0,
			"target":34962
		},
		{
			"buffer":0,
			"byteLength":2544,
			"byteOffset":2544,
			"target":34962
		},
		{
			"buffer":0,
			"byteLength":1696,
			"byteOffset":5088,
			"target":34962
		},
		{
			"buffer":0,
			"byteLength":672,
			"byteOffset":6784,
			"target":34963
		},
		{
			"buffer":0,
			"byteLength":2880,
			"byteOffset":7456,
			"target":34962
		},
		{
			"buffer":0,
			"byteLength":2880,
			"byteOffset":10336,
			"target":34962
		},
		{
			"buffer":0,
			"byteLength":1920,
			"byteOffset":13216,
			"target":34962
		},
		{
			"buffer":0,
			"byteLength":744,
			"byteOffset":15136,
			"target":34963
		},
		{
			"buffer":0,
			"byteLength":6120,
			"byteOffset":15880,
			"target":34962
		},
		{
			"buffer":0,
			"byteLength":6120,
			"byteOffset":22000,
			"target":34962
		},
		{
			"buffer":0,
			"byteLength":4080,
			"byteOffset":28120,
			"target":34962
		},
		{
			"buffer":0,
			"byteLength":5808,
			"byteOffset":32200,
			"target":34963
		}
	],
	"buffers":[
		{
			"byteLength":38008,
			"uri":"Tvstand3.bin"
		}
	]
}
