{
	"asset":{
		"generator":"Khronos glTF Blender I/O v4.2.60",
		"version":"2.0"
	},
	"scene":0,
	"scenes":[
		{
			"name":"Scene",
			"nodes":[
				4
			]
		}
	],
	"nodes":[
		{
			"mesh":0,
			"name":"Cylinder005_01 - Default_0",
			"translation":[
				0,
				28.787322998046875,
				8.719646757526789e-06
			]
		},
		{
			"children":[
				0
			],
			"name":"Cylinder005",
			"rotation":[
				-0.70710688829422,
				0,
				0,
				0.7071066498756409
			],
			"translation":[
				8.671783447265625,
				0.16269110143184662,
				2.323413848876953
			]
		},
		{
			"children":[
				1
			],
			"name":"RootNode"
		},
		{
			"children":[
				2
			],
			"name":"ef564956d2504f09b35a43a75a568550.fbx",
			"rotation":[
				0.70710688829422,
				0,
				0,
				0.7071066498756409
			]
		},
		{
			"children":[
				3
			],
			"name":"Sketchfab_model",
			"rotation":[
				-0.70710688829422,
				0,
				0,
				0.7071066498756409
			],
			"scale":[
				0.05920390784740448,
				0.05920390784740448,
				0.05920390784740448
			],
			"translation":[
				0,
				0,
				1.3041963577270508
			]
		}
	],
	"materials":[
		{
			"doubleSided":true,
			"name":"01_-_Default",
			"pbrMetallicRoughness":{
				"baseColorFactor":[
					0.028863290324807167,
					0.028863290324807167,
					0.028863290324807167,
					1
				],
				"roughnessFactor":0.534870445728302
			}
		},
		{
			"doubleSided":true,
			"name":"04_-_Default",
			"pbrMetallicRoughness":{
				"baseColorFactor":[
					0.008329262025654316,
					0.008329262025654316,
					0.008329262025654316,
					1
				],
				"metallicFactor":0,
				"roughnessFactor":0.46779724955558777
			}
		},
		{
			"doubleSided":true,
			"name":"Material_13",
			"pbrMetallicRoughness":{
				"baseColorFactor":[
					0.5879999995231628,
					0.5879999995231628,
					0.5879999995231628,
					1
				],
				"metallicFactor":0,
				"roughnessFactor":0.8929713368415833
			}
		},
		{
			"doubleSided":true,
			"name":"03_-_Default",
			"pbrMetallicRoughness":{
				"roughnessFactor":0.24434848129749298
			}
		},
		{
			"doubleSided":true,
			"name":"02_-_Default",
			"pbrMetallicRoughness":{
				"baseColorFactor":[
					0.041671693325042725,
					0.041671693325042725,
					0.041671693325042725,
					1
				],
				"roughnessFactor":0.46779724955558777
			}
		},
		{
			"doubleSided":true,
			"name":"05_-_Default",
			"pbrMetallicRoughness":{
				"baseColorFactor":[
					0.5879999995231628,
					0.5879999995231628,
					0.5879999995231628,
					1
				],
				"metallicFactor":0,
				"roughnessFactor":0.8929713368415833
			}
		},
		{
			"doubleSided":true,
			"emissiveFactor":[
				0.4439786672592163,
				0.4439786672592163,
				0.4439786672592163
			],
			"name":"Ceramic",
			"pbrMetallicRoughness":{
				"metallicFactor":0,
				"roughnessFactor":0.1995045691728592
			}
		}
	],
	"meshes":[
		{
			"name":"Cylinder005_01 - Default_0",
			"primitives":[
				{
					"attributes":{
						"POSITION":0,
						"NORMAL":1,
						"TEXCOORD_0":2
					},
					"indices":3,
					"material":0
				},
				{
					"attributes":{
						"POSITION":4,
						"NORMAL":5,
						"TEXCOORD_0":6
					},
					"indices":7,
					"material":1
				},
				{
					"attributes":{
						"POSITION":8,
						"NORMAL":9,
						"TEXCOORD_0":10
					},
					"indices":11,
					"material":2
				},
				{
					"attributes":{
						"POSITION":12,
						"NORMAL":13,
						"TEXCOORD_0":14
					},
					"indices":15,
					"material":3
				},
				{
					"attributes":{
						"POSITION":16,
						"NORMAL":17,
						"TEXCOORD_0":18
					},
					"indices":19,
					"material":4
				},
				{
					"attributes":{
						"POSITION":20,
						"NORMAL":21,
						"TEXCOORD_0":22
					},
					"indices":23,
					"material":5
				},
				{
					"attributes":{
						"POSITION":24,
						"NORMAL":25,
						"TEXCOORD_0":26
					},
					"indices":27,
					"material":6
				}
			]
		}
	],
	"accessors":[
		{
			"bufferView":0,
			"componentType":5126,
			"count":4399,
			"max":[
				6.193977355957031,
				7.681501865386963,
				43.660255432128906
			],
			"min":[
				-25.04059600830078,
				-7.681502342224121,
				-0.06269127130508423
			],
			"type":"VEC3"
		},
		{
			"bufferView":1,
			"componentType":5126,
			"count":4399,
			"type":"VEC3"
		},
		{
			"bufferView":2,
			"componentType":5126,
			"count":4399,
			"type":"VEC2"
		},
		{
			"bufferView":3,
			"componentType":5123,
			"count":11658,
			"type":"SCALAR"
		},
		{
			"bufferView":4,
			"componentType":5126,
			"count":5907,
			"max":[
				-0.8289620876312256,
				7.878463268280029,
				41.846885681152344
			],
			"min":[
				-25.188222885131836,
				-7.8784637451171875,
				-0.1626911163330078
			],
			"type":"VEC3"
		},
		{
			"bufferView":5,
			"componentType":5126,
			"count":5907,
			"type":"VEC3"
		},
		{
			"bufferView":6,
			"componentType":5126,
			"count":5907,
			"type":"VEC2"
		},
		{
			"bufferView":7,
			"componentType":5123,
			"count":17478,
			"type":"SCALAR"
		},
		{
			"bufferView":8,
			"componentType":5126,
			"count":606,
			"max":[
				6.079962253570557,
				5.959125995635986,
				43.48065948486328
			],
			"min":[
				-6.022146224975586,
				-5.959125995635986,
				29.42611312866211
			],
			"type":"VEC3"
		},
		{
			"bufferView":9,
			"componentType":5126,
			"count":606,
			"type":"VEC3"
		},
		{
			"bufferView":10,
			"componentType":5126,
			"count":606,
			"type":"VEC2"
		},
		{
			"bufferView":11,
			"componentType":5123,
			"count":1488,
			"type":"SCALAR"
		},
		{
			"bufferView":12,
			"componentType":5126,
			"count":4032,
			"max":[
				-2.462860584259033,
				1.962263584136963,
				39.29304122924805
			],
			"min":[
				-24.62604331970215,
				-1.5681884288787842,
				3.9885361194610596
			],
			"type":"VEC3"
		},
		{
			"bufferView":13,
			"componentType":5126,
			"count":4032,
			"type":"VEC3"
		},
		{
			"bufferView":14,
			"componentType":5126,
			"count":4032,
			"type":"VEC2"
		},
		{
			"bufferView":15,
			"componentType":5123,
			"count":9552,
			"type":"SCALAR"
		},
		{
			"bufferView":16,
			"componentType":5126,
			"count":9750,
			"max":[
				-13.14747142791748,
				2.1090126037597656,
				30.870281219482422
			],
			"min":[
				-21.558494567871094,
				-2.0846915245056152,
				8.551132202148438
			],
			"type":"VEC3"
		},
		{
			"bufferView":17,
			"componentType":5126,
			"count":9750,
			"type":"VEC3"
		},
		{
			"bufferView":18,
			"componentType":5126,
			"count":9750,
			"type":"VEC2"
		},
		{
			"bufferView":19,
			"componentType":5123,
			"count":49848,
			"type":"SCALAR"
		},
		{
			"bufferView":20,
			"componentType":5126,
			"count":700,
			"max":[
				2.4732463359832764,
				2.495514154434204,
				39.55812454223633
			],
			"min":[
				-2.5177886486053467,
				-2.4955215454101562,
				29.915054321289062
			],
			"type":"VEC3"
		},
		{
			"bufferView":21,
			"componentType":5126,
			"count":700,
			"type":"VEC3"
		},
		{
			"bufferView":22,
			"componentType":5126,
			"count":700,
			"type":"VEC2"
		},
		{
			"bufferView":23,
			"componentType":5123,
			"count":2190,
			"type":"SCALAR"
		},
		{
			"bufferView":24,
			"componentType":5126,
			"count":329,
			"max":[
				2.477728843688965,
				2.4999964237213135,
				29.915054321289062
			],
			"min":[
				-2.522271156311035,
				-2.5000040531158447,
				26.737028121948242
			],
			"type":"VEC3"
		},
		{
			"bufferView":25,
			"componentType":5126,
			"count":329,
			"type":"VEC3"
		},
		{
			"bufferView":26,
			"componentType":5126,
			"count":329,
			"type":"VEC2"
		},
		{
			"bufferView":27,
			"componentType":5123,
			"count":1632,
			"type":"SCALAR"
		}
	],
	"bufferViews":[
		{
			"buffer":0,
			"byteLength":52788,
			"byteOffset":0,
			"target":34962
		},
		{
			"buffer":0,
			"byteLength":52788,
			"byteOffset":52788,
			"target":34962
		},
		{
			"buffer":0,
			"byteLength":35192,
			"byteOffset":105576,
			"target":34962
		},
		{
			"buffer":0,
			"byteLength":23316,
			"byteOffset":140768,
			"target":34963
		},
		{
			"buffer":0,
			"byteLength":70884,
			"byteOffset":164084,
			"target":34962
		},
		{
			"buffer":0,
			"byteLength":70884,
			"byteOffset":234968,
			"target":34962
		},
		{
			"buffer":0,
			"byteLength":47256,
			"byteOffset":305852,
			"target":34962
		},
		{
			"buffer":0,
			"byteLength":34956,
			"byteOffset":353108,
			"target":34963
		},
		{
			"buffer":0,
			"byteLength":7272,
			"byteOffset":388064,
			"target":34962
		},
		{
			"buffer":0,
			"byteLength":7272,
			"byteOffset":395336,
			"target":34962
		},
		{
			"buffer":0,
			"byteLength":4848,
			"byteOffset":402608,
			"target":34962
		},
		{
			"buffer":0,
			"byteLength":2976,
			"byteOffset":407456,
			"target":34963
		},
		{
			"buffer":0,
			"byteLength":48384,
			"byteOffset":410432,
			"target":34962
		},
		{
			"buffer":0,
			"byteLength":48384,
			"byteOffset":458816,
			"target":34962
		},
		{
			"buffer":0,
			"byteLength":32256,
			"byteOffset":507200,
			"target":34962
		},
		{
			"buffer":0,
			"byteLength":19104,
			"byteOffset":539456,
			"target":34963
		},
		{
			"buffer":0,
			"byteLength":117000,
			"byteOffset":558560,
			"target":34962
		},
		{
			"buffer":0,
			"byteLength":117000,
			"byteOffset":675560,
			"target":34962
		},
		{
			"buffer":0,
			"byteLength":78000,
			"byteOffset":792560,
			"target":34962
		},
		{
			"buffer":0,
			"byteLength":99696,
			"byteOffset":870560,
			"target":34963
		},
		{
			"buffer":0,
			"byteLength":8400,
			"byteOffset":970256,
			"target":34962
		},
		{
			"buffer":0,
			"byteLength":8400,
			"byteOffset":978656,
			"target":34962
		},
		{
			"buffer":0,
			"byteLength":5600,
			"byteOffset":987056,
			"target":34962
		},
		{
			"buffer":0,
			"byteLength":4380,
			"byteOffset":992656,
			"target":34963
		},
		{
			"buffer":0,
			"byteLength":3948,
			"byteOffset":997036,
			"target":34962
		},
		{
			"buffer":0,
			"byteLength":3948,
			"byteOffset":1000984,
			"target":34962
		},
		{
			"buffer":0,
			"byteLength":2632,
			"byteOffset":1004932,
			"target":34962
		},
		{
			"buffer":0,
			"byteLength":3264,
			"byteOffset":1007564,
			"target":34963
		}
	],
	"buffers":[
		{
			"byteLength":1010828,
			"uri":"scene.bin"
		}
	]
}
