{
	"asset":{
		"generator":"Khronos glTF Blender I/O v4.2.60",
		"version":"2.0"
	},
	"scene":0,
	"scenes":[
		{
			"name":"Scene",
			"nodes":[
				4
			]
		}
	],
	"nodes":[
		{
			"mesh":0,
			"name":"Floating shelf_Wood_0"
		},
		{
			"children":[
				0
			],
			"name":"Floating shelf",
			"rotation":[
				-0.70710688829422,
				0,
				0,
				0.7071066498756409
			],
			"scale":[
				83.0228042602539,
				83.02276611328125,
				83.02276611328125
			],
			"translation":[
				-36.21454620361328,
				-9.510872840881348,
				11.705779075622559
			]
		},
		{
			"children":[
				1
			],
			"name":"RootNode"
		},
		{
			"children":[
				2
			],
			"name":"3981727415c04c738b448ece2f2a3c32.fbx",
			"rotation":[
				0.70710688829422,
				0,
				0,
				0.7071066498756409
			],
			"scale":[
				0.009999999776482582,
				0.009999998845160007,
				0.009999998845160007
			]
		},
		{
			"children":[
				3
			],
			"name":"Sketchfab_model",
			"rotation":[
				-0.70710688829422,
				0,
				0,
				0.7071066498756409
			]
		}
	],
	"materials":[
		{
			"doubleSided":true,
			"name":"Wood",
			"pbrMetallicRoughness":{
				"metallicFactor":0
			}
		},
		{
			"doubleSided":true,
			"name":"Metal"
		}
	],
	"meshes":[
		{
			"name":"Floating shelf_Wood_0",
			"primitives":[
				{
					"attributes":{
						"POSITION":0,
						"NORMAL":1,
						"TEXCOORD_0":2,
						"TEXCOORD_1":3,
						"TEXCOORD_2":4
					},
					"indices":5,
					"material":0
				},
				{
					"attributes":{
						"POSITION":6,
						"NORMAL":7,
						"TEXCOORD_0":8,
						"TEXCOORD_1":9,
						"TEXCOORD_2":10
					},
					"indices":11,
					"material":1
				}
			]
		}
	],
	"accessors":[
		{
			"bufferView":0,
			"componentType":5126,
			"count":120,
			"max":[
				2.3830413818359375,
				0.5353400707244873,
				1.632461667060852
			],
			"min":[
				-2.3830413818359375,
				-0.5353355407714844,
				-1.632462501525879
			],
			"type":"VEC3"
		},
		{
			"bufferView":1,
			"componentType":5126,
			"count":120,
			"type":"VEC3"
		},
		{
			"bufferView":2,
			"componentType":5126,
			"count":120,
			"type":"VEC2"
		},
		{
			"bufferView":3,
			"componentType":5126,
			"count":120,
			"type":"VEC2"
		},
		{
			"bufferView":4,
			"componentType":5126,
			"count":120,
			"type":"VEC2"
		},
		{
			"bufferView":5,
			"componentType":5123,
			"count":180,
			"type":"SCALAR"
		},
		{
			"bufferView":6,
			"componentType":5126,
			"count":1464,
			"max":[
				2.335524082183838,
				0.4890223741531372,
				1.549196481704712
			],
			"min":[
				-2.3590495586395264,
				-0.488801509141922,
				-1.5595512390136719
			],
			"type":"VEC3"
		},
		{
			"bufferView":7,
			"componentType":5126,
			"count":1464,
			"type":"VEC3"
		},
		{
			"bufferView":8,
			"componentType":5126,
			"count":1464,
			"type":"VEC2"
		},
		{
			"bufferView":9,
			"componentType":5126,
			"count":1464,
			"type":"VEC2"
		},
		{
			"bufferView":10,
			"componentType":5126,
			"count":1464,
			"type":"VEC2"
		},
		{
			"bufferView":11,
			"componentType":5123,
			"count":2196,
			"type":"SCALAR"
		}
	],
	"bufferViews":[
		{
			"buffer":0,
			"byteLength":1440,
			"byteOffset":0,
			"target":34962
		},
		{
			"buffer":0,
			"byteLength":1440,
			"byteOffset":1440,
			"target":34962
		},
		{
			"buffer":0,
			"byteLength":960,
			"byteOffset":2880,
			"target":34962
		},
		{
			"buffer":0,
			"byteLength":960,
			"byteOffset":3840,
			"target":34962
		},
		{
			"buffer":0,
			"byteLength":960,
			"byteOffset":4800,
			"target":34962
		},
		{
			"buffer":0,
			"byteLength":360,
			"byteOffset":5760,
			"target":34963
		},
		{
			"buffer":0,
			"byteLength":17568,
			"byteOffset":6120,
			"target":34962
		},
		{
			"buffer":0,
			"byteLength":17568,
			"byteOffset":23688,
			"target":34962
		},
		{
			"buffer":0,
			"byteLength":11712,
			"byteOffset":41256,
			"target":34962
		},
		{
			"buffer":0,
			"byteLength":11712,
			"byteOffset":52968,
			"target":34962
		},
		{
			"buffer":0,
			"byteLength":11712,
			"byteOffset":64680,
			"target":34962
		},
		{
			"buffer":0,
			"byteLength":4392,
			"byteOffset":76392,
			"target":34963
		}
	],
	"buffers":[
		{
			"byteLength":80784,
			"uri":"scene.bin"
		}
	]
}
