{
	"asset":{
		"generator":"Khronos glTF Blender I/O v4.2.60",
		"version":"2.0"
	},
	"scene":0,
	"scenes":[
		{
			"name":"Scene",
			"nodes":[
				13
			]
		}
	],
	"nodes":[
		{
			"mesh":0,
			"name":"Floating shelf_Wood_0"
		},
		{
			"name":"Rail1",
			"scale":[
				1,
				0.504957914352417,
				1
			],
			"translation":[
				1.8451083898544312,
				0.46991515159606934,
				1.1814444065093994
			]
		},
		{
			"name":"Rail2",
			"rotation":[
				0,
				0,
				-1,
				1.9470718370939721e-07
			],
			"scale":[
				1,
				0.504957914352417,
				1
			],
			"translation":[
				-1.7917746305465698,
				0.46991515159606934,
				-1.1936918497085571
			]
		},
		{
			"name":"Rail3",
			"rotation":[
				0,
				0,
				0.7071068286895752,
				0.7071067094802856
			],
			"scale":[
				1,
				0.5049577951431274,
				1
			],
			"translation":[
				2.3168888092041016,
				9.650391439208761e-05,
				-0.3905005156993866
			]
		},
		{
			"name":"Rail4",
			"rotation":[
				0,
				0,
				0.7071068286895752,
				0.7071067094802856
			],
			"scale":[
				1,
				0.5049579739570618,
				1
			],
			"translation":[
				2.3168888092041016,
				0.00013325022882781923,
				1.1833363771438599
			]
		},
		{
			"name":"Rail5",
			"scale":[
				1,
				0.504957914352417,
				1
			],
			"translation":[
				-0.3251205086708069,
				0.4698783755302429,
				0.3649881184101105
			]
		},
		{
			"name":"Shelf1",
			"translation":[
				0,
				4.593748144543497e-06,
				1.5763492584228516
			]
		},
		{
			"name":"Shelf2",
			"translation":[
				0,
				0,
				-0.7881752252578735
			]
		},
		{
			"name":"Shelf3",
			"translation":[
				0,
				0,
				-1.5763503313064575
			]
		},
		{
			"name":"Shelf4",
			"translation":[
				0,
				0,
				0.7881746292114258
			]
		},
		{
			"children":[
				0,
				1,
				2,
				3,
				4,
				5,
				6,
				7,
				8,
				9
			],
			"name":"Floating shelf",
			"rotation":[
				-0.70710688829422,
				0,
				0,
				0.7071066498756409
			],
			"scale":[
				83.02279663085938,
				83.02276611328125,
				83.02276611328125
			],
			"translation":[
				-36.214542388916016,
				-9.510872840881348,
				11.705779075622559
			]
		},
		{
			"children":[
				10
			],
			"name":"RootNode"
		},
		{
			"children":[
				11
			],
			"name":"3981727415c04c738b448ece2f2a3c32.fbx",
			"rotation":[
				0.70710688829422,
				0,
				0,
				0.7071066498756409
			],
			"scale":[
				0.009999999776482582,
				0.009999999776482582,
				0.009999999776482582
			]
		},
		{
			"children":[
				12
			],
			"name":"Sketchfab_model",
			"rotation":[
				-0.70710688829422,
				0,
				0,
				0.7071066498756409
			]
		}
	],
	"materials":[
		{
			"doubleSided":true,
			"name":"Wood",
			"pbrMetallicRoughness":{
				"baseColorTexture":{
					"index":0
				},
				"metallicFactor":0,
				"metallicRoughnessTexture":{
					"index":1
				}
			}
		},
		{
			"doubleSided":true,
			"name":"Metal",
			"pbrMetallicRoughness":{
				"baseColorTexture":{
					"index":2
				},
				"metallicRoughnessTexture":{
					"index":3
				}
			}
		}
	],
	"meshes":[
		{
			"name":"Floating shelf_Wood_0",
			"primitives":[
				{
					"attributes":{
						"POSITION":0,
						"NORMAL":1,
						"TEXCOORD_0":2,
						"TEXCOORD_1":3,
						"TEXCOORD_2":4
					},
					"indices":5,
					"material":0
				},
				{
					"attributes":{
						"POSITION":6,
						"NORMAL":7,
						"TEXCOORD_0":8,
						"TEXCOORD_1":9,
						"TEXCOORD_2":10
					},
					"indices":11,
					"material":1
				}
			]
		}
	],
	"textures":[
		{
			"sampler":0,
			"source":0
		},
		{
			"sampler":0,
			"source":1
		},
		{
			"sampler":0,
			"source":2
		},
		{
			"sampler":0,
			"source":3
		}
	],
	"images":[
		{
			"mimeType":"image/png",
			"name":"Image_0",
			"uri":"Image_0.png"
		},
		{
			"mimeType":"image/png",
			"name":"Image_1",
			"uri":"Image_1.png"
		},
		{
			"mimeType":"image/png",
			"name":"Image_2",
			"uri":"Image_2.png"
		},
		{
			"mimeType":"image/png",
			"name":"Image_3",
			"uri":"Image_3.png"
		}
	],
	"accessors":[
		{
			"bufferView":0,
			"componentType":5126,
			"count":120,
			"max":[
				2.3830413818359375,
				0.5353400707244873,
				1.632461667060852
			],
			"min":[
				-2.3830413818359375,
				-0.5353355407714844,
				-1.632462501525879
			],
			"type":"VEC3"
		},
		{
			"bufferView":1,
			"componentType":5126,
			"count":120,
			"type":"VEC3"
		},
		{
			"bufferView":2,
			"componentType":5126,
			"count":120,
			"type":"VEC2"
		},
		{
			"bufferView":3,
			"componentType":5126,
			"count":120,
			"type":"VEC2"
		},
		{
			"bufferView":4,
			"componentType":5126,
			"count":120,
			"type":"VEC2"
		},
		{
			"bufferView":5,
			"componentType":5123,
			"count":180,
			"type":"SCALAR"
		},
		{
			"bufferView":6,
			"componentType":5126,
			"count":1464,
			"max":[
				2.335524082183838,
				0.4890223741531372,
				1.549196481704712
			],
			"min":[
				-2.3590495586395264,
				-0.488801509141922,
				-1.5595512390136719
			],
			"type":"VEC3"
		},
		{
			"bufferView":7,
			"componentType":5126,
			"count":1464,
			"type":"VEC3"
		},
		{
			"bufferView":8,
			"componentType":5126,
			"count":1464,
			"type":"VEC2"
		},
		{
			"bufferView":9,
			"componentType":5126,
			"count":1464,
			"type":"VEC2"
		},
		{
			"bufferView":10,
			"componentType":5126,
			"count":1464,
			"type":"VEC2"
		},
		{
			"bufferView":11,
			"componentType":5123,
			"count":2196,
			"type":"SCALAR"
		}
	],
	"bufferViews":[
		{
			"buffer":0,
			"byteLength":1440,
			"byteOffset":0,
			"target":34962
		},
		{
			"buffer":0,
			"byteLength":1440,
			"byteOffset":1440,
			"target":34962
		},
		{
			"buffer":0,
			"byteLength":960,
			"byteOffset":2880,
			"target":34962
		},
		{
			"buffer":0,
			"byteLength":960,
			"byteOffset":3840,
			"target":34962
		},
		{
			"buffer":0,
			"byteLength":960,
			"byteOffset":4800,
			"target":34962
		},
		{
			"buffer":0,
			"byteLength":360,
			"byteOffset":5760,
			"target":34963
		},
		{
			"buffer":0,
			"byteLength":17568,
			"byteOffset":6120,
			"target":34962
		},
		{
			"buffer":0,
			"byteLength":17568,
			"byteOffset":23688,
			"target":34962
		},
		{
			"buffer":0,
			"byteLength":11712,
			"byteOffset":41256,
			"target":34962
		},
		{
			"buffer":0,
			"byteLength":11712,
			"byteOffset":52968,
			"target":34962
		},
		{
			"buffer":0,
			"byteLength":11712,
			"byteOffset":64680,
			"target":34962
		},
		{
			"buffer":0,
			"byteLength":4392,
			"byteOffset":76392,
			"target":34963
		}
	],
	"samplers":[
		{
			"magFilter":9729,
			"minFilter":9987
		}
	],
	"buffers":[
		{
			"byteLength":80784,
			"uri":"shelf4.bin"
		}
	]
}
