{
	"asset":{
		"generator":"Khronos glTF Blender I/O v4.1.62",
		"version":"2.0"
	},
	"scene":0,
	"scenes":[
		{
			"name":"Scene",
			"nodes":[
				4
			]
		}
	],
	"nodes":[
		{
			"mesh":0,
			"name":"LC_defaultMat_0"
		},
		{
			"children":[
				0
			],
			"name":"LC",
			"rotation":[
				-0.70710688829422,
				0,
				0,
				0.7071066498756409
			],
			"scale":[
				100,
				99.99999237060547,
				99.99999237060547
			]
		},
		{
			"children":[
				1
			],
			"name":"RootNode"
		},
		{
			"children":[
				2
			],
			"name":"e0da4378080546ed94e5a1e26607d9aa.fbx",
			"rotation":[
				0.70710688829422,
				0,
				0,
				0.7071066498756409
			],
			"scale":[
				0.009999999776482582,
				0.010000000707805157,
				0.010000000707805157
			]
		},
		{
			"children":[
				3
			],
			"name":"Sketchfab_model",
			"rotation":[
				-0.70710688829422,
				0,
				0,
				0.7071066498756409
			]
		}
	],
	"materials":[
		{
			"doubleSided":true,
			"name":"defaultMat",
			"normalTexture":{
				"index":0
			},
			"pbrMetallicRoughness":{
				"baseColorTexture":{
					"index":1
				},
				"metallicFactor":0,
				"metallicRoughnessTexture":{
					"index":2
				}
			}
		}
	],
	"meshes":[
		{
			"name":"LC_defaultMat_0",
			"primitives":[
				{
					"attributes":{
						"POSITION":0,
						"NORMAL":1,
						"TEXCOORD_0":2,
						"TEXCOORD_1":3,
						"TEXCOORD_2":4
					},
					"indices":5,
					"material":0
				}
			]
		}
	],
	"textures":[
		{
			"sampler":0,
			"source":0
		},
		{
			"sampler":0,
			"source":1
		},
		{
			"sampler":0,
			"source":2
		}
	],
	"images":[
		{
			"mimeType":"image/png",
			"name":"Image_2",
			"uri":"Image_2.png"
		},
		{
			"mimeType":"image/png",
			"name":"Image_0",
			"uri":"Image_0.png"
		},
		{
			"mimeType":"image/png",
			"name":"Image_1",
			"uri":"Image_1.png"
		}
	],
	"accessors":[
		{
			"bufferView":0,
			"componentType":5126,
			"count":5774,
			"max":[
				7.541750907897949,
				7.477071285247803,
				0.2890918552875519
			],
			"min":[
				-7.395419597625732,
				-7.467840194702148,
				-0.019447382539510727
			],
			"type":"VEC3"
		},
		{
			"bufferView":1,
			"componentType":5126,
			"count":5774,
			"type":"VEC3"
		},
		{
			"bufferView":2,
			"componentType":5126,
			"count":5774,
			"type":"VEC2"
		},
		{
			"bufferView":3,
			"componentType":5126,
			"count":5774,
			"type":"VEC2"
		},
		{
			"bufferView":4,
			"componentType":5126,
			"count":5774,
			"type":"VEC2"
		},
		{
			"bufferView":5,
			"componentType":5123,
			"count":26112,
			"type":"SCALAR"
		}
	],
	"bufferViews":[
		{
			"buffer":0,
			"byteLength":69288,
			"byteOffset":0,
			"target":34962
		},
		{
			"buffer":0,
			"byteLength":69288,
			"byteOffset":69288,
			"target":34962
		},
		{
			"buffer":0,
			"byteLength":46192,
			"byteOffset":138576,
			"target":34962
		},
		{
			"buffer":0,
			"byteLength":46192,
			"byteOffset":184768,
			"target":34962
		},
		{
			"buffer":0,
			"byteLength":46192,
			"byteOffset":230960,
			"target":34962
		},
		{
			"buffer":0,
			"byteLength":52224,
			"byteOffset":277152,
			"target":34963
		}
	],
	"samplers":[
		{
			"magFilter":9729,
			"minFilter":9987
		}
	],
	"buffers":[
		{
			"byteLength":329376,
			"uri":"scene.bin"
		}
	]
}
