{
	"asset":{
		"generator":"Khronos glTF Blender I/O v4.1.62",
		"version":"2.0"
	},
	"scene":0,
	"scenes":[
		{
			"name":"Scene",
			"nodes":[
				10
			]
		}
	],
	"nodes":[
		{
			"mesh":0,
			"name":"Object_10"
		},
		{
			"children":[
				0
			],
			"name":"1912 Electrolier Ceiling Lamp Type A Flush Mount_3",
			"translation":[
				0.949931800365448,
				0,
				0
			]
		},
		{
			"mesh":1,
			"name":"Object_4"
		},
		{
			"children":[
				2
			],
			"name":"1912 Electrolier Ceiling Lamp Type A Large Beads_0",
			"translation":[
				-0.8891729116439819,
				0,
				0
			]
		},
		{
			"mesh":2,
			"name":"Object_8"
		},
		{
			"children":[
				4
			],
			"name":"1912 Electrolier Ceiling Lamp Type A Medium Beads_2",
			"translation":[
				0.31250661611557007,
				0,
				0
			]
		},
		{
			"mesh":3,
			"name":"Object_6"
		},
		{
			"children":[
				6
			],
			"name":"1912 Electrolier Ceiling Lamp Type A Small Beads_1",
			"translation":[
				-0.2904834747314453,
				0,
				0
			]
		},
		{
			"children":[
				1,
				3,
				5,
				7
			],
			"name":"GLTF_SceneRootNode",
			"rotation":[
				0.70710688829422,
				0,
				0,
				0.7071066498756409
			]
		},
		{
			"children":[
				8
			],
			"name":"root"
		},
		{
			"children":[
				9
			],
			"name":"Sketchfab_model",
			"rotation":[
				-0.70710688829422,
				0,
				0,
				0.7071066498756409
			]
		}
	],
	"materials":[
		{
			"doubleSided":true,
			"name":"1912_Electrolier_Ceiling_Lamp_Type_A_Flush_Mount",
			"normalTexture":{
				"index":0
			},
			"pbrMetallicRoughness":{
				"baseColorTexture":{
					"index":1
				},
				"metallicRoughnessTexture":{
					"index":2
				}
			}
		},
		{
			"alphaCutoff":0.5,
			"alphaMode":"MASK",
			"doubleSided":true,
			"name":"1912_Electrolier_Ceiling_Lamp_Type_A_Large_Beads",
			"normalTexture":{
				"index":3
			},
			"pbrMetallicRoughness":{
				"baseColorTexture":{
					"index":4
				},
				"metallicRoughnessTexture":{
					"index":5
				}
			}
		},
		{
			"alphaCutoff":0.5,
			"alphaMode":"MASK",
			"doubleSided":true,
			"name":"1912_Electrolier_Ceiling_Lamp_Type_A_Medium_Beads",
			"normalTexture":{
				"index":6
			},
			"pbrMetallicRoughness":{
				"baseColorTexture":{
					"index":7
				},
				"metallicRoughnessTexture":{
					"index":8
				}
			}
		},
		{
			"alphaCutoff":0.5,
			"alphaMode":"MASK",
			"doubleSided":true,
			"name":"1912_Electrolier_Ceiling_Lamp_Type_A_Small_Beads",
			"normalTexture":{
				"index":9
			},
			"pbrMetallicRoughness":{
				"baseColorTexture":{
					"index":10
				},
				"metallicRoughnessTexture":{
					"index":11
				}
			}
		}
	],
	"meshes":[
		{
			"name":"Object_3",
			"primitives":[
				{
					"attributes":{
						"POSITION":0,
						"NORMAL":1,
						"TEXCOORD_0":2,
						"TEXCOORD_1":3,
						"TEXCOORD_2":4,
						"TEXCOORD_3":5
					},
					"indices":6,
					"material":0
				}
			]
		},
		{
			"name":"Object_0",
			"primitives":[
				{
					"attributes":{
						"POSITION":7,
						"NORMAL":8,
						"TEXCOORD_0":9,
						"TEXCOORD_1":10,
						"TEXCOORD_2":11,
						"TEXCOORD_3":12
					},
					"indices":13,
					"material":1
				}
			]
		},
		{
			"name":"Object_2",
			"primitives":[
				{
					"attributes":{
						"POSITION":14,
						"NORMAL":15,
						"TEXCOORD_0":16,
						"TEXCOORD_1":17,
						"TEXCOORD_2":18,
						"TEXCOORD_3":19
					},
					"indices":20,
					"material":2
				}
			]
		},
		{
			"name":"Object_1",
			"primitives":[
				{
					"attributes":{
						"POSITION":21,
						"NORMAL":22,
						"TEXCOORD_0":23,
						"TEXCOORD_1":24,
						"TEXCOORD_2":25,
						"TEXCOORD_3":26
					},
					"indices":27,
					"material":3
				}
			]
		}
	],
	"textures":[
		{
			"sampler":0,
			"source":0
		},
		{
			"sampler":0,
			"source":1
		},
		{
			"sampler":0,
			"source":2
		},
		{
			"sampler":0,
			"source":3
		},
		{
			"sampler":0,
			"source":4
		},
		{
			"sampler":0,
			"source":5
		},
		{
			"sampler":0,
			"source":6
		},
		{
			"sampler":0,
			"source":7
		},
		{
			"sampler":0,
			"source":8
		},
		{
			"sampler":0,
			"source":0
		},
		{
			"sampler":0,
			"source":9
		},
		{
			"sampler":0,
			"source":2
		}
	],
	"images":[
		{
			"mimeType":"image/png",
			"name":"Image_5",
			"uri":"Image_5.png"
		},
		{
			"mimeType":"image/png",
			"name":"Image_9",
			"uri":"Image_9.png"
		},
		{
			"mimeType":"image/png",
			"name":"Image_4",
			"uri":"Image_4.png"
		},
		{
			"mimeType":"image/png",
			"name":"Image_2",
			"uri":"Image_2.png"
		},
		{
			"mimeType":"image/png",
			"name":"Image_0",
			"uri":"Image_0.png"
		},
		{
			"mimeType":"image/png",
			"name":"Image_1",
			"uri":"Image_1.png"
		},
		{
			"mimeType":"image/png",
			"name":"Image_8",
			"uri":"Image_8.png"
		},
		{
			"mimeType":"image/png",
			"name":"Image_6",
			"uri":"Image_6.png"
		},
		{
			"mimeType":"image/png",
			"name":"Image_7",
			"uri":"Image_7.png"
		},
		{
			"mimeType":"image/png",
			"name":"Image_3",
			"uri":"Image_3.png"
		}
	],
	"accessors":[
		{
			"bufferView":0,
			"componentType":5126,
			"count":2499,
			"max":[
				0.25284242630004883,
				0.00029639899730682373,
				0.25284233689308167
			],
			"min":[
				-0.25284239649772644,
				-0.36293599009513855,
				-0.2528424859046936
			],
			"type":"VEC3"
		},
		{
			"bufferView":1,
			"componentType":5126,
			"count":2499,
			"type":"VEC3"
		},
		{
			"bufferView":2,
			"componentType":5126,
			"count":2499,
			"type":"VEC2"
		},
		{
			"bufferView":3,
			"componentType":5126,
			"count":2499,
			"type":"VEC2"
		},
		{
			"bufferView":4,
			"componentType":5126,
			"count":2499,
			"type":"VEC2"
		},
		{
			"bufferView":5,
			"componentType":5126,
			"count":2499,
			"type":"VEC2"
		},
		{
			"bufferView":6,
			"componentType":5123,
			"count":10446,
			"type":"SCALAR"
		},
		{
			"bufferView":7,
			"componentType":5126,
			"count":7256,
			"max":[
				0.25284242630004883,
				-3.0934810638427734e-05,
				0.25284233689308167
			],
			"min":[
				-0.25284239649772644,
				-0.48557817935943604,
				-0.2528424859046936
			],
			"type":"VEC3"
		},
		{
			"bufferView":8,
			"componentType":5126,
			"count":7256,
			"type":"VEC3"
		},
		{
			"bufferView":9,
			"componentType":5126,
			"count":7256,
			"type":"VEC2"
		},
		{
			"bufferView":10,
			"componentType":5126,
			"count":7256,
			"type":"VEC2"
		},
		{
			"bufferView":11,
			"componentType":5126,
			"count":7256,
			"type":"VEC2"
		},
		{
			"bufferView":12,
			"componentType":5126,
			"count":7256,
			"type":"VEC2"
		},
		{
			"bufferView":13,
			"componentType":5123,
			"count":27498,
			"type":"SCALAR"
		},
		{
			"bufferView":14,
			"componentType":5126,
			"count":7085,
			"max":[
				0.25284242630004883,
				4.64320182800293e-05,
				0.25284233689308167
			],
			"min":[
				-0.25284239649772644,
				-0.4891613721847534,
				-0.2528424859046936
			],
			"type":"VEC3"
		},
		{
			"bufferView":15,
			"componentType":5126,
			"count":7085,
			"type":"VEC3"
		},
		{
			"bufferView":16,
			"componentType":5126,
			"count":7085,
			"type":"VEC2"
		},
		{
			"bufferView":17,
			"componentType":5126,
			"count":7085,
			"type":"VEC2"
		},
		{
			"bufferView":18,
			"componentType":5126,
			"count":7085,
			"type":"VEC2"
		},
		{
			"bufferView":19,
			"componentType":5126,
			"count":7085,
			"type":"VEC2"
		},
		{
			"bufferView":20,
			"componentType":5123,
			"count":26766,
			"type":"SCALAR"
		},
		{
			"bufferView":21,
			"componentType":5126,
			"count":7260,
			"max":[
				0.25284242630004883,
				5.036592483520508e-05,
				0.25284233689308167
			],
			"min":[
				-0.25284239649772644,
				-0.4854968786239624,
				-0.2528424859046936
			],
			"type":"VEC3"
		},
		{
			"bufferView":22,
			"componentType":5126,
			"count":7260,
			"type":"VEC3"
		},
		{
			"bufferView":23,
			"componentType":5126,
			"count":7260,
			"type":"VEC2"
		},
		{
			"bufferView":24,
			"componentType":5126,
			"count":7260,
			"type":"VEC2"
		},
		{
			"bufferView":25,
			"componentType":5126,
			"count":7260,
			"type":"VEC2"
		},
		{
			"bufferView":26,
			"componentType":5126,
			"count":7260,
			"type":"VEC2"
		},
		{
			"bufferView":27,
			"componentType":5123,
			"count":27498,
			"type":"SCALAR"
		}
	],
	"bufferViews":[
		{
			"buffer":0,
			"byteLength":29988,
			"byteOffset":0,
			"target":34962
		},
		{
			"buffer":0,
			"byteLength":29988,
			"byteOffset":29988,
			"target":34962
		},
		{
			"buffer":0,
			"byteLength":19992,
			"byteOffset":59976,
			"target":34962
		},
		{
			"buffer":0,
			"byteLength":19992,
			"byteOffset":79968,
			"target":34962
		},
		{
			"buffer":0,
			"byteLength":19992,
			"byteOffset":99960,
			"target":34962
		},
		{
			"buffer":0,
			"byteLength":19992,
			"byteOffset":119952,
			"target":34962
		},
		{
			"buffer":0,
			"byteLength":20892,
			"byteOffset":139944,
			"target":34963
		},
		{
			"buffer":0,
			"byteLength":87072,
			"byteOffset":160836,
			"target":34962
		},
		{
			"buffer":0,
			"byteLength":87072,
			"byteOffset":247908,
			"target":34962
		},
		{
			"buffer":0,
			"byteLength":58048,
			"byteOffset":334980,
			"target":34962
		},
		{
			"buffer":0,
			"byteLength":58048,
			"byteOffset":393028,
			"target":34962
		},
		{
			"buffer":0,
			"byteLength":58048,
			"byteOffset":451076,
			"target":34962
		},
		{
			"buffer":0,
			"byteLength":58048,
			"byteOffset":509124,
			"target":34962
		},
		{
			"buffer":0,
			"byteLength":54996,
			"byteOffset":567172,
			"target":34963
		},
		{
			"buffer":0,
			"byteLength":85020,
			"byteOffset":622168,
			"target":34962
		},
		{
			"buffer":0,
			"byteLength":85020,
			"byteOffset":707188,
			"target":34962
		},
		{
			"buffer":0,
			"byteLength":56680,
			"byteOffset":792208,
			"target":34962
		},
		{
			"buffer":0,
			"byteLength":56680,
			"byteOffset":848888,
			"target":34962
		},
		{
			"buffer":0,
			"byteLength":56680,
			"byteOffset":905568,
			"target":34962
		},
		{
			"buffer":0,
			"byteLength":56680,
			"byteOffset":962248,
			"target":34962
		},
		{
			"buffer":0,
			"byteLength":53532,
			"byteOffset":1018928,
			"target":34963
		},
		{
			"buffer":0,
			"byteLength":87120,
			"byteOffset":1072460,
			"target":34962
		},
		{
			"buffer":0,
			"byteLength":87120,
			"byteOffset":1159580,
			"target":34962
		},
		{
			"buffer":0,
			"byteLength":58080,
			"byteOffset":1246700,
			"target":34962
		},
		{
			"buffer":0,
			"byteLength":58080,
			"byteOffset":1304780,
			"target":34962
		},
		{
			"buffer":0,
			"byteLength":58080,
			"byteOffset":1362860,
			"target":34962
		},
		{
			"buffer":0,
			"byteLength":58080,
			"byteOffset":1420940,
			"target":34962
		},
		{
			"buffer":0,
			"byteLength":54996,
			"byteOffset":1479020,
			"target":34963
		}
	],
	"samplers":[
		{
			"magFilter":9729,
			"minFilter":9987
		}
	],
	"buffers":[
		{
			"byteLength":1534016,
			"uri":"scene.bin"
		}
	]
}
