{
	"asset":{
		"generator":"Khronos glTF Blender I/O v4.2.60",
		"version":"2.0"
	},
	"extensionsUsed":[
		"KHR_materials_specular",
		"KHR_materials_ior"
	],
	"scene":0,
	"scenes":[
		{
			"name":"Scene",
			"nodes":[
				7
			]
		}
	],
	"nodes":[
		{
			"name":"Chair_Back",
			"rotation":[
				0.6611621975898743,
				0,
				0,
				0.7502430081367493
			],
			"scale":[
				0.19248001277446747,
				0.19247739017009735,
				0.19247739017009735
			],
			"translation":[
				-0.002230000216513872,
				0.8880399465560913,
				2.2528200149536133
			]
		},
		{
			"name":"Chair_Legs",
			"rotation":[
				-0.03045816905796528,
				-0.03976251184940338,
				0.006091141141951084,
				0.9987263679504395
			],
			"scale":[
				0.03657820448279381,
				0.03657044097781181,
				0.03657378628849983
			],
			"translation":[
				-0.002230000216513872,
				-0.0019999996293336153,
				0.7732299566268921
			]
		},
		{
			"mesh":0,
			"name":"Chair_Sit_0"
		},
		{
			"children":[
				2
			],
			"name":"Chair_Sit",
			"rotation":[
				-0.03841731324791908,
				0,
				0,
				0.9992618560791016
			],
			"scale":[
				0.16919000446796417,
				0.16918940842151642,
				0.16918940842151642
			],
			"translation":[
				-0.002230000216513872,
				0.42768996953964233,
				1.1804497241973877
			]
		},
		{
			"name":"Lamp.001"
		},
		{
			"children":[
				4
			],
			"name":"Lamp",
			"rotation":[
				0.16907529532909393,
				0.27217087149620056,
				0.7558793425559998,
				0.5709494352340698
			],
			"scale":[
				0.999997615814209,
				0.9999960064888,
				0.9999960660934448
			],
			"translation":[
				4.076249599456787,
				1.0054500102996826,
				5.903859615325928
			]
		},
		{
			"children":[
				0,
				1,
				3,
				5
			],
			"name":"Root"
		},
		{
			"children":[
				6
			],
			"name":"Sketchfab_model",
			"rotation":[
				-0.70710688829422,
				0,
				0,
				0.7071066498756409
			],
			"scale":[
				1.06607186794281,
				1.06607186794281,
				1.06607186794281
			]
		}
	],
	"materials":[
		{
			"doubleSided":true,
			"extensions":{
				"KHR_materials_specular":{
					"specularColorFactor":[
						0.6600000262260437,
						0.6600000262260437,
						0.6600000262260437
					],
					"specularColorTexture":{
						"index":0
					}
				},
				"KHR_materials_ior":{
					"ior":1000
				}
			},
			"name":"Chair_Back",
			"normalTexture":{
				"index":1
			},
			"pbrMetallicRoughness":{
				"baseColorTexture":{
					"index":2
				},
				"metallicFactor":0,
				"metallicRoughnessTexture":{
					"index":3
				}
			}
		},
		{
			"doubleSided":true,
			"extensions":{
				"KHR_materials_specular":{
					"specularColorFactor":[
						0.38999998569488525,
						0.38999998569488525,
						0.38999998569488525
					],
					"specularColorTexture":{
						"index":4
					}
				},
				"KHR_materials_ior":{
					"ior":1000
				}
			},
			"name":"Chair_Legs",
			"pbrMetallicRoughness":{
				"baseColorTexture":{
					"index":5
				},
				"metallicFactor":0,
				"metallicRoughnessTexture":{
					"index":6
				}
			}
		}
	],
	"meshes":[
		{
			"name":"Chair_Sit_0",
			"primitives":[
				{
					"attributes":{
						"POSITION":0,
						"NORMAL":1,
						"TEXCOORD_0":2
					},
					"indices":3,
					"material":0
				},
				{
					"attributes":{
						"POSITION":4,
						"NORMAL":5,
						"TEXCOORD_0":6
					},
					"indices":7,
					"material":1
				}
			]
		}
	],
	"textures":[
		{
			"sampler":0,
			"source":0
		},
		{
			"sampler":0,
			"source":1
		},
		{
			"sampler":0,
			"source":0
		},
		{
			"sampler":0,
			"source":2
		},
		{
			"sampler":0,
			"source":3
		},
		{
			"sampler":0,
			"source":3
		},
		{
			"sampler":0,
			"source":4
		}
	],
	"images":[
		{
			"mimeType":"image/png",
			"name":"Image_1",
			"uri":"Image_1.png"
		},
		{
			"mimeType":"image/png",
			"name":"Image_2",
			"uri":"Image_2.png"
		},
		{
			"mimeType":"image/png",
			"name":"Image_1",
			"uri":"Image_1-1.png"
		},
		{
			"mimeType":"image/jpeg",
			"name":"Image_0",
			"uri":"Image_0.jpg"
		},
		{
			"mimeType":"image/png",
			"name":"Image_0",
			"uri":"Image_0.png"
		}
	],
	"accessors":[
		{
			"bufferView":0,
			"componentType":5126,
			"count":9420,
			"max":[
				5.073545932769775,
				2.244497776031494,
				7.643448829650879
			],
			"min":[
				-5.073545932769775,
				-6.905920028686523,
				-2.3247299194335938
			],
			"type":"VEC3"
		},
		{
			"bufferView":1,
			"componentType":5126,
			"count":9420,
			"type":"VEC3"
		},
		{
			"bufferView":2,
			"componentType":5126,
			"count":9420,
			"type":"VEC2"
		},
		{
			"bufferView":3,
			"componentType":5123,
			"count":54528,
			"type":"SCALAR"
		},
		{
			"bufferView":4,
			"componentType":5126,
			"count":12881,
			"max":[
				4.289327621459961,
				1.505124568939209,
				-1.0669809579849243
			],
			"min":[
				-4.289095878601074,
				-6.9598917961120605,
				-7.553308486938477
			],
			"type":"VEC3"
		},
		{
			"bufferView":5,
			"componentType":5126,
			"count":12881,
			"type":"VEC3"
		},
		{
			"bufferView":6,
			"componentType":5126,
			"count":12881,
			"type":"VEC2"
		},
		{
			"bufferView":7,
			"componentType":5123,
			"count":67008,
			"type":"SCALAR"
		}
	],
	"bufferViews":[
		{
			"buffer":0,
			"byteLength":113040,
			"byteOffset":0,
			"target":34962
		},
		{
			"buffer":0,
			"byteLength":113040,
			"byteOffset":113040,
			"target":34962
		},
		{
			"buffer":0,
			"byteLength":75360,
			"byteOffset":226080,
			"target":34962
		},
		{
			"buffer":0,
			"byteLength":109056,
			"byteOffset":301440,
			"target":34963
		},
		{
			"buffer":0,
			"byteLength":154572,
			"byteOffset":410496,
			"target":34962
		},
		{
			"buffer":0,
			"byteLength":154572,
			"byteOffset":565068,
			"target":34962
		},
		{
			"buffer":0,
			"byteLength":103048,
			"byteOffset":719640,
			"target":34962
		},
		{
			"buffer":0,
			"byteLength":134016,
			"byteOffset":822688,
			"target":34963
		}
	],
	"samplers":[
		{
			"magFilter":9729,
			"minFilter":9987
		}
	],
	"buffers":[
		{
			"byteLength":956704,
			"uri":"chair5.bin"
		}
	]
}
