{
	"asset":{
		"generator":"Khronos glTF Blender I/O v4.2.60",
		"version":"2.0"
	},
	"extensionsUsed":[
		"KHR_materials_emissive_strength",
		"KHR_materials_specular"
	],
	"scene":0,
	"scenes":[
		{
			"name":"Scene",
			"nodes":[
				3,
				4,
				9
			]
		}
	],
	"nodes":[
		{
			"name":"Floating shelf",
			"rotation":[
				-0.70710688829422,
				0,
				0,
				0.7071066498756409
			],
			"scale":[
				83.0228042602539,
				83.02276611328125,
				83.02276611328125
			],
			"translation":[
				-36.21454620361328,
				-9.510872840881348,
				11.705779075622559
			]
		},
		{
			"children":[
				0
			],
			"name":"RootNode"
		},
		{
			"children":[
				1
			],
			"name":"3981727415c04c738b448ece2f2a3c32.fbx",
			"rotation":[
				0.70710688829422,
				0,
				0,
				0.7071066498756409
			],
			"scale":[
				0.009999999776482582,
				0.009999998845160007,
				0.009999998845160007
			]
		},
		{
			"children":[
				2
			],
			"name":"Sketchfab_model",
			"rotation":[
				-0.70710688829422,
				0,
				0,
				0.7071066498756409
			]
		},
		{
			"mesh":0,
			"name":"Cylinder005_01 - Default_0",
			"translation":[
				0,
				37.009368896484375,
				1.1211851415282581e-05
			]
		},
		{
			"mesh":1,
			"name":"lamp_1_0"
		},
		{
			"children":[
				5
			],
			"name":"lamp",
			"rotation":[
				-0.70710688829422,
				0,
				0,
				0.7071066498756409
			],
			"scale":[
				100,
				99.9999771118164,
				99.9999771118164
			]
		},
		{
			"children":[
				6
			],
			"name":"RootNode.001"
		},
		{
			"children":[
				7
			],
			"name":"lamp1.fbx",
			"rotation":[
				0.70710688829422,
				0,
				0,
				0.7071066498756409
			],
			"scale":[
				0.009999999776482582,
				0.010000000707805157,
				0.010000000707805157
			]
		},
		{
			"children":[
				8
			],
			"name":"Sketchfab_model.001",
			"rotation":[
				-0.7071070671081543,
				0,
				0,
				0.7071065306663513
			],
			"scale":[
				1.7590084075927734,
				1.7590086460113525,
				1.7590086460113525
			]
		}
	],
	"materials":[
		{
			"doubleSided":true,
			"name":"01_-_Default",
			"pbrMetallicRoughness":{
				"baseColorFactor":[
					0.028863290324807167,
					0.028863290324807167,
					0.028863290324807167,
					1
				],
				"roughnessFactor":0.534870445728302
			}
		},
		{
			"doubleSided":true,
			"name":"04_-_Default",
			"pbrMetallicRoughness":{
				"baseColorFactor":[
					0.008329262025654316,
					0.008329262025654316,
					0.008329262025654316,
					1
				],
				"metallicFactor":0,
				"roughnessFactor":0.46779724955558777
			}
		},
		{
			"doubleSided":true,
			"name":"Material_13",
			"pbrMetallicRoughness":{
				"baseColorFactor":[
					0.5879999995231628,
					0.5879999995231628,
					0.5879999995231628,
					1
				],
				"metallicFactor":0,
				"roughnessFactor":0.8929713368415833
			}
		},
		{
			"doubleSided":true,
			"name":"03_-_Default",
			"pbrMetallicRoughness":{
				"roughnessFactor":0.24434848129749298
			}
		},
		{
			"doubleSided":true,
			"name":"02_-_Default",
			"pbrMetallicRoughness":{
				"baseColorFactor":[
					0.041671693325042725,
					0.041671693325042725,
					0.041671693325042725,
					1
				],
				"roughnessFactor":0.46779724955558777
			}
		},
		{
			"doubleSided":true,
			"name":"05_-_Default",
			"pbrMetallicRoughness":{
				"baseColorFactor":[
					0.5879999995231628,
					0.5879999995231628,
					0.5879999995231628,
					1
				],
				"metallicFactor":0,
				"roughnessFactor":0.8929713368415833
			}
		},
		{
			"doubleSided":true,
			"emissiveFactor":[
				0.4439786672592163,
				0.4439786672592163,
				0.4439786672592163
			],
			"name":"Ceramic",
			"pbrMetallicRoughness":{
				"metallicFactor":0,
				"roughnessFactor":0.1995045691728592
			}
		},
		{
			"doubleSided":true,
			"name":"material",
			"pbrMetallicRoughness":{
				"baseColorFactor":[
					0.6831716299057007,
					0.5584145188331604,
					0.48511672019958496,
					1
				],
				"metallicFactor":0.6872401833534241,
				"roughnessFactor":0.3398105502128601
			}
		},
		{
			"doubleSided":true,
			"extensions":{
				"KHR_materials_specular":{
					"specularFactor":0.784764289855957
				}
			},
			"name":"metal",
			"pbrMetallicRoughness":{
				"baseColorFactor":[
					0.4969229996204376,
					0.3185400068759918,
					0.19162200391292572,
					1
				],
				"metallicFactor":0,
				"roughnessFactor":0.0960002914071083
			}
		},
		{
			"doubleSided":true,
			"emissiveFactor":[
				1,
				0.9552090167999268,
				0.6883630156517029
			],
			"extensions":{
				"KHR_materials_emissive_strength":{
					"emissiveStrength":10
				}
			},
			"name":"light",
			"pbrMetallicRoughness":{
				"metallicFactor":0
			}
		},
		{
			"doubleSided":true,
			"name":"material_3",
			"pbrMetallicRoughness":{
				"baseColorFactor":[
					0.23301400244235992,
					0.15140600502490997,
					0.0928058996796608,
					1
				],
				"metallicFactor":0.4007631242275238,
				"roughnessFactor":0.0899050384759903
			}
		}
	],
	"meshes":[
		{
			"name":"Cylinder005_01 - Default_0.001",
			"primitives":[
				{
					"attributes":{
						"POSITION":0,
						"NORMAL":1,
						"TEXCOORD_0":2
					},
					"indices":3,
					"material":0
				},
				{
					"attributes":{
						"POSITION":4,
						"NORMAL":5,
						"TEXCOORD_0":6
					},
					"indices":7,
					"material":1
				},
				{
					"attributes":{
						"POSITION":8,
						"NORMAL":9,
						"TEXCOORD_0":10
					},
					"indices":11,
					"material":2
				},
				{
					"attributes":{
						"POSITION":12,
						"NORMAL":13,
						"TEXCOORD_0":14
					},
					"indices":15,
					"material":3
				},
				{
					"attributes":{
						"POSITION":16,
						"NORMAL":17,
						"TEXCOORD_0":18
					},
					"indices":19,
					"material":4
				},
				{
					"attributes":{
						"POSITION":20,
						"NORMAL":21,
						"TEXCOORD_0":22
					},
					"indices":23,
					"material":5
				},
				{
					"attributes":{
						"POSITION":24,
						"NORMAL":25,
						"TEXCOORD_0":26
					},
					"indices":27,
					"material":6
				}
			]
		},
		{
			"name":"lamp_1_0",
			"primitives":[
				{
					"attributes":{
						"POSITION":28,
						"NORMAL":29,
						"TEXCOORD_0":30
					},
					"indices":31,
					"material":7
				},
				{
					"attributes":{
						"POSITION":32,
						"NORMAL":33,
						"TEXCOORD_0":34
					},
					"indices":35,
					"material":8
				},
				{
					"attributes":{
						"POSITION":36,
						"NORMAL":37,
						"TEXCOORD_0":38
					},
					"indices":39,
					"material":9
				},
				{
					"attributes":{
						"POSITION":40,
						"NORMAL":41,
						"TEXCOORD_0":42
					},
					"indices":43,
					"material":10
				}
			]
		}
	],
	"accessors":[
		{
			"bufferView":0,
			"componentType":5126,
			"count":4399,
			"max":[
				6.193977355957031,
				7.681501865386963,
				43.660255432128906
			],
			"min":[
				-25.04059600830078,
				-7.681502342224121,
				-0.06269127130508423
			],
			"type":"VEC3"
		},
		{
			"bufferView":1,
			"componentType":5126,
			"count":4399,
			"type":"VEC3"
		},
		{
			"bufferView":2,
			"componentType":5126,
			"count":4399,
			"type":"VEC2"
		},
		{
			"bufferView":3,
			"componentType":5123,
			"count":11658,
			"type":"SCALAR"
		},
		{
			"bufferView":4,
			"componentType":5126,
			"count":5907,
			"max":[
				-0.8289620876312256,
				7.878463268280029,
				41.846885681152344
			],
			"min":[
				-25.188222885131836,
				-7.8784637451171875,
				-0.1626911163330078
			],
			"type":"VEC3"
		},
		{
			"bufferView":5,
			"componentType":5126,
			"count":5907,
			"type":"VEC3"
		},
		{
			"bufferView":6,
			"componentType":5126,
			"count":5907,
			"type":"VEC2"
		},
		{
			"bufferView":7,
			"componentType":5123,
			"count":17478,
			"type":"SCALAR"
		},
		{
			"bufferView":8,
			"componentType":5126,
			"count":606,
			"max":[
				6.079962253570557,
				5.959125995635986,
				43.48065948486328
			],
			"min":[
				-6.022146224975586,
				-5.959125995635986,
				29.42611312866211
			],
			"type":"VEC3"
		},
		{
			"bufferView":9,
			"componentType":5126,
			"count":606,
			"type":"VEC3"
		},
		{
			"bufferView":10,
			"componentType":5126,
			"count":606,
			"type":"VEC2"
		},
		{
			"bufferView":11,
			"componentType":5123,
			"count":1488,
			"type":"SCALAR"
		},
		{
			"bufferView":12,
			"componentType":5126,
			"count":4032,
			"max":[
				-2.462860584259033,
				1.962263584136963,
				39.29304122924805
			],
			"min":[
				-24.62604331970215,
				-1.5681884288787842,
				3.9885361194610596
			],
			"type":"VEC3"
		},
		{
			"bufferView":13,
			"componentType":5126,
			"count":4032,
			"type":"VEC3"
		},
		{
			"bufferView":14,
			"componentType":5126,
			"count":4032,
			"type":"VEC2"
		},
		{
			"bufferView":15,
			"componentType":5123,
			"count":9552,
			"type":"SCALAR"
		},
		{
			"bufferView":16,
			"componentType":5126,
			"count":9750,
			"max":[
				-13.14747142791748,
				2.1090126037597656,
				30.870281219482422
			],
			"min":[
				-21.558494567871094,
				-2.0846915245056152,
				8.551132202148438
			],
			"type":"VEC3"
		},
		{
			"bufferView":17,
			"componentType":5126,
			"count":9750,
			"type":"VEC3"
		},
		{
			"bufferView":18,
			"componentType":5126,
			"count":9750,
			"type":"VEC2"
		},
		{
			"bufferView":19,
			"componentType":5123,
			"count":49848,
			"type":"SCALAR"
		},
		{
			"bufferView":20,
			"componentType":5126,
			"count":700,
			"max":[
				2.4732463359832764,
				2.495514154434204,
				39.55812454223633
			],
			"min":[
				-2.5177886486053467,
				-2.4955215454101562,
				29.915054321289062
			],
			"type":"VEC3"
		},
		{
			"bufferView":21,
			"componentType":5126,
			"count":700,
			"type":"VEC3"
		},
		{
			"bufferView":22,
			"componentType":5126,
			"count":700,
			"type":"VEC2"
		},
		{
			"bufferView":23,
			"componentType":5123,
			"count":2190,
			"type":"SCALAR"
		},
		{
			"bufferView":24,
			"componentType":5126,
			"count":329,
			"max":[
				2.477728843688965,
				2.4999964237213135,
				29.915054321289062
			],
			"min":[
				-2.522271156311035,
				-2.5000040531158447,
				26.737028121948242
			],
			"type":"VEC3"
		},
		{
			"bufferView":25,
			"componentType":5126,
			"count":329,
			"type":"VEC3"
		},
		{
			"bufferView":26,
			"componentType":5126,
			"count":329,
			"type":"VEC2"
		},
		{
			"bufferView":27,
			"componentType":5123,
			"count":1632,
			"type":"SCALAR"
		},
		{
			"bufferView":28,
			"componentType":5126,
			"count":2923,
			"max":[
				0.30128344893455505,
				0.29211437702178955,
				0.6623829007148743
			],
			"min":[
				-0.30128347873687744,
				-0.2921142578125,
				0.019501272588968277
			],
			"type":"VEC3"
		},
		{
			"bufferView":29,
			"componentType":5126,
			"count":2923,
			"type":"VEC3"
		},
		{
			"bufferView":30,
			"componentType":5126,
			"count":2923,
			"type":"VEC2"
		},
		{
			"bufferView":31,
			"componentType":5123,
			"count":11856,
			"type":"SCALAR"
		},
		{
			"bufferView":32,
			"componentType":5126,
			"count":6917,
			"max":[
				0.3196156919002533,
				0.3196157217025757,
				0.6687425971031189
			],
			"min":[
				-0.3196156919002533,
				-0.3196157217025757,
				0
			],
			"type":"VEC3"
		},
		{
			"bufferView":33,
			"componentType":5126,
			"count":6917,
			"type":"VEC3"
		},
		{
			"bufferView":34,
			"componentType":5126,
			"count":6917,
			"type":"VEC2"
		},
		{
			"bufferView":35,
			"componentType":5123,
			"count":37914,
			"type":"SCALAR"
		},
		{
			"bufferView":36,
			"componentType":5126,
			"count":960,
			"max":[
				0.30777254700660706,
				0.30777257680892944,
				0.3081873655319214
			],
			"min":[
				-0.30777254700660706,
				-0.30777257680892944,
				0
			],
			"type":"VEC3"
		},
		{
			"bufferView":37,
			"componentType":5126,
			"count":960,
			"type":"VEC3"
		},
		{
			"bufferView":38,
			"componentType":5126,
			"count":960,
			"type":"VEC2"
		},
		{
			"bufferView":39,
			"componentType":5123,
			"count":2880,
			"type":"SCALAR"
		},
		{
			"bufferView":40,
			"componentType":5126,
			"count":575,
			"max":[
				0.05405673012137413,
				0.054056525230407715,
				0.6973510384559631
			],
			"min":[
				-0.05405673012137413,
				-0.05405694246292114,
				0.6687425971031189
			],
			"type":"VEC3"
		},
		{
			"bufferView":41,
			"componentType":5126,
			"count":575,
			"type":"VEC3"
		},
		{
			"bufferView":42,
			"componentType":5126,
			"count":575,
			"type":"VEC2"
		},
		{
			"bufferView":43,
			"componentType":5123,
			"count":1626,
			"type":"SCALAR"
		}
	],
	"bufferViews":[
		{
			"buffer":0,
			"byteLength":52788,
			"byteOffset":0,
			"target":34962
		},
		{
			"buffer":0,
			"byteLength":52788,
			"byteOffset":52788,
			"target":34962
		},
		{
			"buffer":0,
			"byteLength":35192,
			"byteOffset":105576,
			"target":34962
		},
		{
			"buffer":0,
			"byteLength":23316,
			"byteOffset":140768,
			"target":34963
		},
		{
			"buffer":0,
			"byteLength":70884,
			"byteOffset":164084,
			"target":34962
		},
		{
			"buffer":0,
			"byteLength":70884,
			"byteOffset":234968,
			"target":34962
		},
		{
			"buffer":0,
			"byteLength":47256,
			"byteOffset":305852,
			"target":34962
		},
		{
			"buffer":0,
			"byteLength":34956,
			"byteOffset":353108,
			"target":34963
		},
		{
			"buffer":0,
			"byteLength":7272,
			"byteOffset":388064,
			"target":34962
		},
		{
			"buffer":0,
			"byteLength":7272,
			"byteOffset":395336,
			"target":34962
		},
		{
			"buffer":0,
			"byteLength":4848,
			"byteOffset":402608,
			"target":34962
		},
		{
			"buffer":0,
			"byteLength":2976,
			"byteOffset":407456,
			"target":34963
		},
		{
			"buffer":0,
			"byteLength":48384,
			"byteOffset":410432,
			"target":34962
		},
		{
			"buffer":0,
			"byteLength":48384,
			"byteOffset":458816,
			"target":34962
		},
		{
			"buffer":0,
			"byteLength":32256,
			"byteOffset":507200,
			"target":34962
		},
		{
			"buffer":0,
			"byteLength":19104,
			"byteOffset":539456,
			"target":34963
		},
		{
			"buffer":0,
			"byteLength":117000,
			"byteOffset":558560,
			"target":34962
		},
		{
			"buffer":0,
			"byteLength":117000,
			"byteOffset":675560,
			"target":34962
		},
		{
			"buffer":0,
			"byteLength":78000,
			"byteOffset":792560,
			"target":34962
		},
		{
			"buffer":0,
			"byteLength":99696,
			"byteOffset":870560,
			"target":34963
		},
		{
			"buffer":0,
			"byteLength":8400,
			"byteOffset":970256,
			"target":34962
		},
		{
			"buffer":0,
			"byteLength":8400,
			"byteOffset":978656,
			"target":34962
		},
		{
			"buffer":0,
			"byteLength":5600,
			"byteOffset":987056,
			"target":34962
		},
		{
			"buffer":0,
			"byteLength":4380,
			"byteOffset":992656,
			"target":34963
		},
		{
			"buffer":0,
			"byteLength":3948,
			"byteOffset":997036,
			"target":34962
		},
		{
			"buffer":0,
			"byteLength":3948,
			"byteOffset":1000984,
			"target":34962
		},
		{
			"buffer":0,
			"byteLength":2632,
			"byteOffset":1004932,
			"target":34962
		},
		{
			"buffer":0,
			"byteLength":3264,
			"byteOffset":1007564,
			"target":34963
		},
		{
			"buffer":0,
			"byteLength":35076,
			"byteOffset":1010828,
			"target":34962
		},
		{
			"buffer":0,
			"byteLength":35076,
			"byteOffset":1045904,
			"target":34962
		},
		{
			"buffer":0,
			"byteLength":23384,
			"byteOffset":1080980,
			"target":34962
		},
		{
			"buffer":0,
			"byteLength":23712,
			"byteOffset":1104364,
			"target":34963
		},
		{
			"buffer":0,
			"byteLength":83004,
			"byteOffset":1128076,
			"target":34962
		},
		{
			"buffer":0,
			"byteLength":83004,
			"byteOffset":1211080,
			"target":34962
		},
		{
			"buffer":0,
			"byteLength":55336,
			"byteOffset":1294084,
			"target":34962
		},
		{
			"buffer":0,
			"byteLength":75828,
			"byteOffset":1349420,
			"target":34963
		},
		{
			"buffer":0,
			"byteLength":11520,
			"byteOffset":1425248,
			"target":34962
		},
		{
			"buffer":0,
			"byteLength":11520,
			"byteOffset":1436768,
			"target":34962
		},
		{
			"buffer":0,
			"byteLength":7680,
			"byteOffset":1448288,
			"target":34962
		},
		{
			"buffer":0,
			"byteLength":5760,
			"byteOffset":1455968,
			"target":34963
		},
		{
			"buffer":0,
			"byteLength":6900,
			"byteOffset":1461728,
			"target":34962
		},
		{
			"buffer":0,
			"byteLength":6900,
			"byteOffset":1468628,
			"target":34962
		},
		{
			"buffer":0,
			"byteLength":4600,
			"byteOffset":1475528,
			"target":34962
		},
		{
			"buffer":0,
			"byteLength":3252,
			"byteOffset":1480128,
			"target":34963
		}
	],
	"buffers":[
		{
			"byteLength":1483380,
			"uri":"scene.bin"
		}
	]
}
