{
	"asset":{
		"generator":"Khronos glTF Blender I/O v4.1.62",
		"version":"2.0"
	},
	"scene":0,
	"scenes":[
		{
			"name":"Scene",
			"nodes":[
				8
			]
		}
	],
	"nodes":[
		{
			"name":"03",
			"translation":[
				0,
				87.49217224121094,
				0
			]
		},
		{
			"mesh":0,
			"name":"03_1_03_0",
			"translation":[
				10.441102981567383,
				0,
				6.2035722732543945
			]
		},
		{
			"children":[
				1
			],
			"name":"03_1",
			"rotation":[
				0,
				0.869135320186615,
				0,
				0.4945743978023529
			],
			"translation":[
				0,
				87.49217224121094,
				0
			]
		},
		{
			"name":"Object_4",
			"translation":[
				4.100799560546875e-05,
				-1.8537044525146484e-05,
				1.127024461311521e-05
			]
		},
		{
			"children":[
				3
			],
			"name":"CINEMA_4D_Editor",
			"rotation":[
				-0.0026273333933204412,
				0.05320444703102112,
				-0.049251705408096313,
				0.99736487865448
			],
			"translation":[
				-397.21075439453125,
				152.91793823242188,
				50.675418853759766
			]
		},
		{
			"name":"vase_Flower_Pot_"
		},
		{
			"children":[
				0,
				2,
				4,
				5
			],
			"name":"RootNode"
		},
		{
			"children":[
				6
			],
			"name":"8af9c41e4d3644419de2c6cf662334ce.fbx",
			"rotation":[
				0.70710688829422,
				0,
				0,
				0.7071066498756409
			],
			"scale":[
				0.009999999776482582,
				0.009999999776482582,
				0.009999999776482582
			]
		},
		{
			"children":[
				7
			],
			"name":"Sketchfab_model",
			"rotation":[
				-0.70710688829422,
				0,
				0,
				0.7071066498756409
			]
		}
	],
	"materials":[
		{
			"alphaMode":"BLEND",
			"doubleSided":true,
			"name":"material",
			"normalTexture":{
				"index":0
			},
			"pbrMetallicRoughness":{
				"baseColorTexture":{
					"index":1
				},
				"metallicFactor":0,
				"metallicRoughnessTexture":{
					"index":2
				},
				"roughnessFactor":0.260572224855423
			}
		},
		{
			"doubleSided":true,
			"name":"vase_Flower_Pot",
			"normalTexture":{
				"index":3
			},
			"pbrMetallicRoughness":{
				"baseColorTexture":{
					"index":4
				},
				"metallicFactor":0,
				"metallicRoughnessTexture":{
					"index":5
				}
			}
		}
	],
	"meshes":[
		{
			"name":"03_1_03_0",
			"primitives":[
				{
					"attributes":{
						"POSITION":0,
						"NORMAL":1,
						"TEXCOORD_0":2,
						"TEXCOORD_1":3,
						"TEXCOORD_2":4,
						"TEXCOORD_3":5
					},
					"indices":6,
					"material":0
				},
				{
					"attributes":{
						"POSITION":7,
						"NORMAL":8,
						"TEXCOORD_0":9,
						"TEXCOORD_1":10,
						"TEXCOORD_2":11,
						"TEXCOORD_3":12
					},
					"indices":13,
					"material":1
				}
			]
		}
	],
	"textures":[
		{
			"sampler":0,
			"source":0
		},
		{
			"sampler":0,
			"source":1
		},
		{
			"sampler":0,
			"source":2
		},
		{
			"sampler":0,
			"source":3
		},
		{
			"sampler":0,
			"source":4
		},
		{
			"sampler":0,
			"source":5
		}
	],
	"images":[
		{
			"mimeType":"image/png",
			"name":"Image_2",
			"uri":"Image_2.png"
		},
		{
			"mimeType":"image/png",
			"name":"Image_0",
			"uri":"Image_0.png"
		},
		{
			"mimeType":"image/png",
			"name":"Image_1",
			"uri":"Image_1.png"
		},
		{
			"mimeType":"image/png",
			"name":"Image_5",
			"uri":"Image_5.png"
		},
		{
			"mimeType":"image/png",
			"name":"Image_3",
			"uri":"Image_3.png"
		},
		{
			"mimeType":"image/png",
			"name":"Image_4",
			"uri":"Image_4.png"
		}
	],
	"accessors":[
		{
			"bufferView":0,
			"componentType":5126,
			"count":1476,
			"max":[
				85.5807876586914,
				90.84317016601562,
				90.73722839355469
			],
			"min":[
				-81.32554626464844,
				-0.6049782037734985,
				-68.83155059814453
			],
			"type":"VEC3"
		},
		{
			"bufferView":1,
			"componentType":5126,
			"count":1476,
			"type":"VEC3"
		},
		{
			"bufferView":2,
			"componentType":5126,
			"count":1476,
			"type":"VEC2"
		},
		{
			"bufferView":3,
			"componentType":5126,
			"count":1476,
			"type":"VEC2"
		},
		{
			"bufferView":4,
			"componentType":5126,
			"count":1476,
			"type":"VEC2"
		},
		{
			"bufferView":5,
			"componentType":5126,
			"count":1476,
			"type":"VEC2"
		},
		{
			"bufferView":6,
			"componentType":5123,
			"count":3240,
			"type":"SCALAR"
		},
		{
			"bufferView":7,
			"componentType":5126,
			"count":2163,
			"max":[
				30.978010177612305,
				7.450923919677734,
				30.97800636291504
			],
			"min":[
				-30.978010177612305,
				-87.6965103149414,
				-30.97800636291504
			],
			"type":"VEC3"
		},
		{
			"bufferView":8,
			"componentType":5126,
			"count":2163,
			"type":"VEC3"
		},
		{
			"bufferView":9,
			"componentType":5126,
			"count":2163,
			"type":"VEC2"
		},
		{
			"bufferView":10,
			"componentType":5126,
			"count":2163,
			"type":"VEC2"
		},
		{
			"bufferView":11,
			"componentType":5126,
			"count":2163,
			"type":"VEC2"
		},
		{
			"bufferView":12,
			"componentType":5126,
			"count":2163,
			"type":"VEC2"
		},
		{
			"bufferView":13,
			"componentType":5123,
			"count":6576,
			"type":"SCALAR"
		}
	],
	"bufferViews":[
		{
			"buffer":0,
			"byteLength":17712,
			"byteOffset":0,
			"target":34962
		},
		{
			"buffer":0,
			"byteLength":17712,
			"byteOffset":17712,
			"target":34962
		},
		{
			"buffer":0,
			"byteLength":11808,
			"byteOffset":35424,
			"target":34962
		},
		{
			"buffer":0,
			"byteLength":11808,
			"byteOffset":47232,
			"target":34962
		},
		{
			"buffer":0,
			"byteLength":11808,
			"byteOffset":59040,
			"target":34962
		},
		{
			"buffer":0,
			"byteLength":11808,
			"byteOffset":70848,
			"target":34962
		},
		{
			"buffer":0,
			"byteLength":6480,
			"byteOffset":82656,
			"target":34963
		},
		{
			"buffer":0,
			"byteLength":25956,
			"byteOffset":89136,
			"target":34962
		},
		{
			"buffer":0,
			"byteLength":25956,
			"byteOffset":115092,
			"target":34962
		},
		{
			"buffer":0,
			"byteLength":17304,
			"byteOffset":141048,
			"target":34962
		},
		{
			"buffer":0,
			"byteLength":17304,
			"byteOffset":158352,
			"target":34962
		},
		{
			"buffer":0,
			"byteLength":17304,
			"byteOffset":175656,
			"target":34962
		},
		{
			"buffer":0,
			"byteLength":17304,
			"byteOffset":192960,
			"target":34962
		},
		{
			"buffer":0,
			"byteLength":13152,
			"byteOffset":210264,
			"target":34963
		}
	],
	"samplers":[
		{
			"magFilter":9729,
			"minFilter":9987
		}
	],
	"buffers":[
		{
			"byteLength":223416,
			"uri":"scene.bin"
		}
	]
}
