{
	"asset":{
		"generator":"Khronos glTF Blender I/O v4.2.60",
		"version":"2.0"
	},
	"scene":0,
	"scenes":[
		{
			"name":"Scene",
			"nodes":[
				8
			]
		}
	],
	"nodes":[
		{
			"mesh":0,
			"name":"Chair1_Metal028_2K_0"
		},
		{
			"children":[
				0
			],
			"name":"Chair1",
			"rotation":[
				-0.70710688829422,
				0,
				0,
				0.7071066498756409
			],
			"scale":[
				120.00000762939453,
				119.99999237060547,
				119.99999237060547
			],
			"translation":[
				717.1320190429688,
				167.07708740234375,
				-232.9507598876953
			]
		},
		{
			"name":"Chair2",
			"rotation":[
				-0.04444956034421921,
				-0.7057083249092102,
				-0.7057083249092102,
				0.044449564069509506
			],
			"scale":[
				120,
				119.99999237060547,
				120
			],
			"translation":[
				598.7346801757812,
				167.07708740234375,
				-232.9507598876953
			]
		},
		{
			"name":"Chair3",
			"rotation":[
				-0.702116072177887,
				0.08386354893445969,
				0.08386354893445969,
				0.7021159529685974
			],
			"scale":[
				120.00000762939453,
				120.00000762939453,
				120
			],
			"translation":[
				717.1320190429688,
				167.07708740234375,
				-303.102294921875
			]
		},
		{
			"name":"Chair4",
			"rotation":[
				-0.14189888536930084,
				0.6927226781845093,
				0.6927226781845093,
				0.14189884066581726
			],
			"scale":[
				119.99999237060547,
				119.99999237060547,
				120
			],
			"translation":[
				598.7346801757812,
				167.07708740234375,
				-313.2514343261719
			]
		},
		{
			"name":"Table",
			"rotation":[
				-0.70710688829422,
				0,
				0,
				0.7071066498756409
			],
			"scale":[
				120.00000762939453,
				119.99999237060547,
				119.99999237060547
			],
			"translation":[
				627.1476440429688,
				203.37689208984375,
				-224.78834533691406
			]
		},
		{
			"children":[
				1,
				2,
				3,
				4,
				5
			],
			"name":"RootNode"
		},
		{
			"children":[
				6
			],
			"name":"d42622b1b79f4125a2f8d32e86ccc560.fbx",
			"rotation":[
				0.70710688829422,
				0,
				0,
				0.7071066498756409
			],
			"scale":[
				0.009999999776482582,
				0.010000000707805157,
				0.010000000707805157
			]
		},
		{
			"children":[
				7
			],
			"name":"Sketchfab_model",
			"rotation":[
				-0.70710688829422,
				0,
				0,
				0.7071066498756409
			]
		}
	],
	"materials":[
		{
			"doubleSided":true,
			"name":"Metal028_2K",
			"normalTexture":{
				"index":0
			},
			"pbrMetallicRoughness":{
				"baseColorTexture":{
					"index":1
				},
				"metallicRoughnessTexture":{
					"index":2
				}
			}
		},
		{
			"doubleSided":true,
			"name":"Wood049_2K",
			"normalTexture":{
				"index":3
			},
			"pbrMetallicRoughness":{
				"baseColorTexture":{
					"index":4
				},
				"metallicFactor":0,
				"metallicRoughnessTexture":{
					"index":5
				}
			}
		}
	],
	"meshes":[
		{
			"name":"Chair1_Metal028_2K_0",
			"primitives":[
				{
					"attributes":{
						"POSITION":0,
						"NORMAL":1,
						"TEXCOORD_0":2
					},
					"indices":3,
					"material":0
				},
				{
					"attributes":{
						"POSITION":4,
						"NORMAL":5,
						"TEXCOORD_0":6
					},
					"indices":7,
					"material":1
				}
			]
		}
	],
	"textures":[
		{
			"sampler":0,
			"source":0
		},
		{
			"sampler":0,
			"source":1
		},
		{
			"sampler":0,
			"source":2
		},
		{
			"sampler":0,
			"source":3
		},
		{
			"sampler":0,
			"source":4
		},
		{
			"sampler":0,
			"source":5
		}
	],
	"images":[
		{
			"mimeType":"image/png",
			"name":"Metal028_2K_normal",
			"uri":"Metal028_2K_normal.png"
		},
		{
			"mimeType":"image/png",
			"name":"Metal028_2K_baseColor",
			"uri":"Metal028_2K_baseColor.png"
		},
		{
			"mimeType":"image/png",
			"name":"Metal028_2K_metallicRoughness",
			"uri":"Metal028_2K_metallicRoughness.png"
		},
		{
			"mimeType":"image/png",
			"name":"Wood049_2K_normal",
			"uri":"Wood049_2K_normal.png"
		},
		{
			"mimeType":"image/png",
			"name":"Wood049_2K_baseColor",
			"uri":"Wood049_2K_baseColor.png"
		},
		{
			"mimeType":"image/png",
			"name":"Wood049_2K_metallicRoughness",
			"uri":"Wood049_2K_metallicRoughness.png"
		}
	],
	"accessors":[
		{
			"bufferView":0,
			"componentType":5126,
			"count":2055,
			"max":[
				0.251160591840744,
				0.9421308040618896,
				0.3452291786670685
			],
			"min":[
				-1.2592887878417969,
				-0.3640553653240204,
				-0.5680708885192871
			],
			"type":"VEC3"
		},
		{
			"bufferView":1,
			"componentType":5126,
			"count":2055,
			"type":"VEC3"
		},
		{
			"bufferView":2,
			"componentType":5126,
			"count":2055,
			"type":"VEC2"
		},
		{
			"bufferView":3,
			"componentType":5123,
			"count":3120,
			"type":"SCALAR"
		},
		{
			"bufferView":4,
			"componentType":5126,
			"count":864,
			"max":[
				0.23484240472316742,
				0.9290163516998291,
				0.3443179130554199
			],
			"min":[
				-1.242893934249878,
				-0.32036635279655457,
				-0.01000012643635273
			],
			"type":"VEC3"
		},
		{
			"bufferView":5,
			"componentType":5126,
			"count":864,
			"type":"VEC3"
		},
		{
			"bufferView":6,
			"componentType":5126,
			"count":864,
			"type":"VEC2"
		},
		{
			"bufferView":7,
			"componentType":5123,
			"count":1296,
			"type":"SCALAR"
		}
	],
	"bufferViews":[
		{
			"buffer":0,
			"byteLength":24660,
			"byteOffset":0,
			"target":34962
		},
		{
			"buffer":0,
			"byteLength":24660,
			"byteOffset":24660,
			"target":34962
		},
		{
			"buffer":0,
			"byteLength":16440,
			"byteOffset":49320,
			"target":34962
		},
		{
			"buffer":0,
			"byteLength":6240,
			"byteOffset":65760,
			"target":34963
		},
		{
			"buffer":0,
			"byteLength":10368,
			"byteOffset":72000,
			"target":34962
		},
		{
			"buffer":0,
			"byteLength":10368,
			"byteOffset":82368,
			"target":34962
		},
		{
			"buffer":0,
			"byteLength":6912,
			"byteOffset":92736,
			"target":34962
		},
		{
			"buffer":0,
			"byteLength":2592,
			"byteOffset":99648,
			"target":34963
		}
	],
	"samplers":[
		{
			"magFilter":9729,
			"minFilter":9987
		}
	],
	"buffers":[
		{
			"byteLength":102240,
			"uri":"scene.bin"
		}
	]
}
