{
	"asset":{
		"generator":"Khronos glTF Blender I/O v4.1.62",
		"version":"2.0"
	},
	"extensionsUsed":[
		"KHR_materials_specular",
		"KHR_materials_ior",
		"KHR_texture_transform"
	],
	"extensionsRequired":[
		"KHR_texture_transform"
	],
	"scene":0,
	"scenes":[
		{
			"name":"Scene",
			"nodes":[
				0,
				1,
				2,
				3,
				4,
				6,
				7,
				8
			]
		}
	],
	"nodes":[
		{
			"mesh":0,
			"name":"Cube.001",
			"scale":[
				7.926194190979004,
				0.6782539486885071,
				5.951565265655518
			],
			"translation":[
				-0.9171030521392822,
				1.1069166660308838,
				-0.022148042917251587
			]
		},
		{
			"mesh":1,
			"name":"Box004",
			"rotation":[
				-0.6121048927307129,
				-0.3537648618221283,
				-0.6154239773750305,
				0.3484702408313751
			],
			"scale":[
				-0.24861131608486176,
				-0.20358555018901825,
				-0.1975194364786148
			],
			"translation":[
				6.039195537567139,
				3.111455202102661,
				-2.677576780319214
			]
		},
		{
			"mesh":2,
			"name":"Box004.001",
			"rotation":[
				-0.6121048927307129,
				-0.3537648618221283,
				-0.6154239773750305,
				0.3484702408313751
			],
			"scale":[
				-0.24861131608486176,
				-0.20358555018901825,
				-0.1975194364786148
			],
			"translation":[
				6.039195537567139,
				3.1232566833496094,
				3.2460219860076904
			]
		},
		{
			"mesh":3,
			"name":"Box004.002",
			"rotation":[
				-0.6121048331260681,
				-0.3537648618221283,
				-0.6154239773750305,
				0.3484702706336975
			],
			"scale":[
				-0.17946814000606537,
				-0.14696483314037323,
				-0.1425858438014984
			],
			"translation":[
				4.160944938659668,
				2.8093509674072266,
				3.2460219860076904
			]
		},
		{
			"mesh":4,
			"name":"Box004.003",
			"rotation":[
				-0.6121048331260681,
				-0.3537648618221283,
				-0.6154239773750305,
				0.3484702706336975
			],
			"scale":[
				-0.17946814000606537,
				-0.14696483314037323,
				-0.1425858438014984
			],
			"translation":[
				4.160944938659668,
				2.8093509674072266,
				-2.635986566543579
			]
		},
		{
			"mesh":5,
			"name":"coverlet",
			"rotation":[
				0,
				-0.7131397724151611,
				0,
				0.7010219693183899
			],
			"scale":[
				0.939900279045105,
				0.6552064418792725,
				1.0777919292449951
			],
			"translation":[
				-34.387664794921875,
				2.5049638748168945,
				90.26692962646484
			]
		},
		{
			"children":[
				5
			],
			"name":"bed white gold",
			"scale":[
				0.18739251792430878,
				0.18739251792430878,
				0.18739251792430878
			],
			"translation":[
				1.797235369682312,
				0.5521341562271118,
				-16.651813507080078
			]
		},
		{
			"mesh":6,
			"name":"Cube.008",
			"rotation":[
				0.5,
				-0.5,
				-0.5,
				0.5
			],
			"scale":[
				0.30650314688682556,
				0.30824387073516846,
				0.6922990679740906
			],
			"translation":[
				-7.507809162139893,
				-2.056607723236084,
				-3.0577175617218018
			]
		},
		{
			"mesh":7,
			"name":"Cube.011",
			"rotation":[
				0.0009817994432523847,
				-0.7071061134338379,
				0.7071061730384827,
				0.000981799210421741
			],
			"scale":[
				0.3065031170845032,
				0.30824387073516846,
				0.9098585844039917
			],
			"translation":[
				5.842794895172119,
				-1.4565521478652954,
				5.119299411773682
			]
		}
	],
	"materials":[
		{
			"doubleSided":true,
			"name":"Material.001",
			"pbrMetallicRoughness":{
				"baseColorFactor":[
					1,
					0.9822515249252319,
					0.799103319644928,
					1
				],
				"metallicFactor":0,
				"roughnessFactor":0.5
			}
		},
		{
			"doubleSided":true,
			"extensions":{
				"KHR_materials_specular":{
					"specularFactor":0.4000000059604645
				},
				"KHR_materials_ior":{
					"ior":1.4500000476837158
				}
			},
			"name":"Leather Fabric Cream - 70",
			"normalTexture":{
				"extensions":{
					"KHR_texture_transform":{
						"offset":[
							-9.99999999999999,
							1.0000004371139
						],
						"rotation":1.5707963705062866,
						"scale":[
							10,
							10
						]
					}
				},
				"index":0,
				"texCoord":1
			},
			"pbrMetallicRoughness":{
				"baseColorTexture":{
					"index":1,
					"texCoord":1
				},
				"metallicFactor":0.20000000298023224,
				"metallicRoughnessTexture":{
					"index":2,
					"texCoord":1
				}
			}
		},
		{
			"doubleSided":true,
			"name":"Drapery Texture 02",
			"normalTexture":{
				"index":3,
				"texCoord":1
			},
			"pbrMetallicRoughness":{
				"baseColorTexture":{
					"index":4,
					"texCoord":1
				},
				"metallicFactor":0,
				"metallicRoughnessTexture":{
					"index":5,
					"texCoord":1
				}
			}
		},
		{
			"doubleSided":true,
			"name":"Wood light",
			"normalTexture":{
				"index":6,
				"texCoord":1
			},
			"pbrMetallicRoughness":{
				"baseColorTexture":{
					"index":7,
					"texCoord":1
				},
				"metallicFactor":0,
				"metallicRoughnessTexture":{
					"index":8,
					"texCoord":1
				}
			}
		}
	],
	"meshes":[
		{
			"name":"Cube.002",
			"primitives":[
				{
					"attributes":{
						"POSITION":0,
						"NORMAL":1,
						"TEXCOORD_0":2,
						"TEXCOORD_1":3
					},
					"indices":4,
					"material":0
				}
			]
		},
		{
			"name":"Mesh.002",
			"primitives":[
				{
					"attributes":{
						"POSITION":5,
						"NORMAL":6,
						"TEXCOORD_0":7,
						"TEXCOORD_1":8
					},
					"indices":9,
					"material":1
				}
			]
		},
		{
			"name":"Mesh.001",
			"primitives":[
				{
					"attributes":{
						"POSITION":10,
						"NORMAL":11,
						"TEXCOORD_0":12,
						"TEXCOORD_1":13
					},
					"indices":9,
					"material":1
				}
			]
		},
		{
			"name":"Mesh.003",
			"primitives":[
				{
					"attributes":{
						"POSITION":14,
						"NORMAL":15,
						"TEXCOORD_0":16,
						"TEXCOORD_1":17
					},
					"indices":9,
					"material":2
				}
			]
		},
		{
			"name":"Mesh.004",
			"primitives":[
				{
					"attributes":{
						"POSITION":18,
						"NORMAL":19,
						"TEXCOORD_0":20,
						"TEXCOORD_1":21
					},
					"indices":22,
					"material":2
				}
			]
		},
		{
			"name":"Mesh",
			"primitives":[
				{
					"attributes":{
						"POSITION":23,
						"NORMAL":24,
						"TEXCOORD_0":25,
						"TEXCOORD_1":26
					},
					"indices":27,
					"material":1
				}
			]
		},
		{
			"name":"Cube.008",
			"primitives":[
				{
					"attributes":{
						"POSITION":28,
						"NORMAL":29,
						"TEXCOORD_0":30,
						"TEXCOORD_1":31
					},
					"indices":32,
					"material":3
				}
			]
		},
		{
			"name":"Cube.011",
			"primitives":[
				{
					"attributes":{
						"POSITION":33,
						"NORMAL":34,
						"TEXCOORD_0":35,
						"TEXCOORD_1":36
					},
					"indices":37,
					"material":3
				}
			]
		}
	],
	"textures":[
		{
			"sampler":0,
			"source":0
		},
		{
			"sampler":0,
			"source":1
		},
		{
			"sampler":0,
			"source":2
		},
		{
			"sampler":0,
			"source":3
		},
		{
			"sampler":0,
			"source":4
		},
		{
			"sampler":0,
			"source":5
		},
		{
			"sampler":0,
			"source":6
		},
		{
			"sampler":0,
			"source":7
		},
		{
			"sampler":0,
			"source":8
		}
	],
	"images":[
		{
			"mimeType":"image/jpeg",
			"name":"bump_reticular_05k",
			"uri":"bump_reticular_05k.jpg"
		},
		{
			"mimeType":"image/jpeg",
			"name":"fabric-70-cream_diffuse",
			"uri":"fabric-70-cream_diffuse.jpg"
		},
		{
			"mimeType":"image/png",
			"name":"fabric-70_roughness",
			"uri":"fabric-70_roughness.png"
		},
		{
			"mimeType":"image/jpeg",
			"name":"normal",
			"uri":"normal.jpg"
		},
		{
			"mimeType":"image/jpeg",
			"name":"color6",
			"uri":"color6.jpg"
		},
		{
			"mimeType":"image/png",
			"name":"roughness",
			"uri":"roughness.png"
		},
		{
			"mimeType":"image/jpeg",
			"name":"wood_normal",
			"uri":"wood_normal.jpg"
		},
		{
			"mimeType":"image/jpeg",
			"name":"wood_diffuse",
			"uri":"wood_diffuse.jpg"
		},
		{
			"mimeType":"image/png",
			"name":"wood_roughness",
			"uri":"wood_roughness.png"
		}
	],
	"accessors":[
		{
			"bufferView":0,
			"componentType":5126,
			"count":994,
			"max":[
				0.9986379146575928,
				0.9994766712188721,
				1.0141159296035767
			],
			"min":[
				-0.99819016456604,
				-0.9994778633117676,
				-1.0141324996948242
			],
			"type":"VEC3"
		},
		{
			"bufferView":1,
			"componentType":5126,
			"count":994,
			"type":"VEC3"
		},
		{
			"bufferView":2,
			"componentType":5126,
			"count":994,
			"type":"VEC2"
		},
		{
			"bufferView":3,
			"componentType":5126,
			"count":994,
			"type":"VEC2"
		},
		{
			"bufferView":4,
			"componentType":5123,
			"count":1224,
			"type":"SCALAR"
		},
		{
			"bufferView":5,
			"componentType":5126,
			"count":9119,
			"max":[
				11.344951629638672,
				5.377280235290527,
				8.637386322021484
			],
			"min":[
				-11.36679744720459,
				-5.158851146697998,
				-8.291934967041016
			],
			"type":"VEC3"
		},
		{
			"bufferView":6,
			"componentType":5126,
			"count":9119,
			"type":"VEC3"
		},
		{
			"bufferView":7,
			"componentType":5126,
			"count":9119,
			"type":"VEC2"
		},
		{
			"bufferView":8,
			"componentType":5126,
			"count":9119,
			"type":"VEC2"
		},
		{
			"bufferView":9,
			"componentType":5123,
			"count":34800,
			"type":"SCALAR"
		},
		{
			"bufferView":10,
			"componentType":5126,
			"count":9119,
			"max":[
				11.344951629638672,
				5.377280235290527,
				8.637386322021484
			],
			"min":[
				-11.36679744720459,
				-5.158851146697998,
				-8.291934967041016
			],
			"type":"VEC3"
		},
		{
			"bufferView":11,
			"componentType":5126,
			"count":9119,
			"type":"VEC3"
		},
		{
			"bufferView":12,
			"componentType":5126,
			"count":9119,
			"type":"VEC2"
		},
		{
			"bufferView":13,
			"componentType":5126,
			"count":9119,
			"type":"VEC2"
		},
		{
			"bufferView":14,
			"componentType":5126,
			"count":9119,
			"max":[
				11.344951629638672,
				5.377280235290527,
				8.637386322021484
			],
			"min":[
				-11.36679744720459,
				-5.158851146697998,
				-8.291934967041016
			],
			"type":"VEC3"
		},
		{
			"bufferView":15,
			"componentType":5126,
			"count":9119,
			"type":"VEC3"
		},
		{
			"bufferView":16,
			"componentType":5126,
			"count":9119,
			"type":"VEC2"
		},
		{
			"bufferView":17,
			"componentType":5126,
			"count":9119,
			"type":"VEC2"
		},
		{
			"bufferView":18,
			"componentType":5126,
			"count":9119,
			"max":[
				11.344951629638672,
				5.377280235290527,
				8.637386322021484
			],
			"min":[
				-11.36679744720459,
				-5.158851146697998,
				-8.291934967041016
			],
			"type":"VEC3"
		},
		{
			"bufferView":19,
			"componentType":5126,
			"count":9119,
			"type":"VEC3"
		},
		{
			"bufferView":20,
			"componentType":5126,
			"count":9119,
			"type":"VEC2"
		},
		{
			"bufferView":21,
			"componentType":5126,
			"count":9119,
			"type":"VEC2"
		},
		{
			"bufferView":22,
			"componentType":5123,
			"count":34800,
			"type":"SCALAR"
		},
		{
			"bufferView":23,
			"componentType":5126,
			"count":1803,
			"max":[
				43.62205123901367,
				10.334176063537598,
				25.090435028076172
			],
			"min":[
				-43.79035186767578,
				-10.314569473266602,
				-25.069915771484375
			],
			"type":"VEC3"
		},
		{
			"bufferView":24,
			"componentType":5126,
			"count":1803,
			"type":"VEC3"
		},
		{
			"bufferView":25,
			"componentType":5126,
			"count":1803,
			"type":"VEC2"
		},
		{
			"bufferView":26,
			"componentType":5126,
			"count":1803,
			"type":"VEC2"
		},
		{
			"bufferView":27,
			"componentType":5123,
			"count":7242,
			"type":"SCALAR"
		},
		{
			"bufferView":28,
			"componentType":5126,
			"count":531,
			"max":[
				1.0107667446136475,
				30.362812042236328,
				2.042625665664673
			],
			"min":[
				-30.015878677368164,
				-10.495474815368652,
				-22.172508239746094
			],
			"type":"VEC3"
		},
		{
			"bufferView":29,
			"componentType":5126,
			"count":531,
			"type":"VEC3"
		},
		{
			"bufferView":30,
			"componentType":5126,
			"count":531,
			"type":"VEC2"
		},
		{
			"bufferView":31,
			"componentType":5126,
			"count":531,
			"type":"VEC2"
		},
		{
			"bufferView":32,
			"componentType":5123,
			"count":798,
			"type":"SCALAR"
		},
		{
			"bufferView":33,
			"componentType":5126,
			"count":24,
			"max":[
				1,
				1,
				1
			],
			"min":[
				-1,
				-1,
				-1
			],
			"type":"VEC3"
		},
		{
			"bufferView":34,
			"componentType":5126,
			"count":24,
			"type":"VEC3"
		},
		{
			"bufferView":35,
			"componentType":5126,
			"count":24,
			"type":"VEC2"
		},
		{
			"bufferView":36,
			"componentType":5126,
			"count":24,
			"type":"VEC2"
		},
		{
			"bufferView":37,
			"componentType":5123,
			"count":36,
			"type":"SCALAR"
		}
	],
	"bufferViews":[
		{
			"buffer":0,
			"byteLength":11928,
			"byteOffset":0,
			"target":34962
		},
		{
			"buffer":0,
			"byteLength":11928,
			"byteOffset":11928,
			"target":34962
		},
		{
			"buffer":0,
			"byteLength":7952,
			"byteOffset":23856,
			"target":34962
		},
		{
			"buffer":0,
			"byteLength":7952,
			"byteOffset":31808,
			"target":34962
		},
		{
			"buffer":0,
			"byteLength":2448,
			"byteOffset":39760,
			"target":34963
		},
		{
			"buffer":0,
			"byteLength":109428,
			"byteOffset":42208,
			"target":34962
		},
		{
			"buffer":0,
			"byteLength":109428,
			"byteOffset":151636,
			"target":34962
		},
		{
			"buffer":0,
			"byteLength":72952,
			"byteOffset":261064,
			"target":34962
		},
		{
			"buffer":0,
			"byteLength":72952,
			"byteOffset":334016,
			"target":34962
		},
		{
			"buffer":0,
			"byteLength":69600,
			"byteOffset":406968,
			"target":34963
		},
		{
			"buffer":0,
			"byteLength":109428,
			"byteOffset":476568,
			"target":34962
		},
		{
			"buffer":0,
			"byteLength":109428,
			"byteOffset":585996,
			"target":34962
		},
		{
			"buffer":0,
			"byteLength":72952,
			"byteOffset":695424,
			"target":34962
		},
		{
			"buffer":0,
			"byteLength":72952,
			"byteOffset":768376,
			"target":34962
		},
		{
			"buffer":0,
			"byteLength":109428,
			"byteOffset":841328,
			"target":34962
		},
		{
			"buffer":0,
			"byteLength":109428,
			"byteOffset":950756,
			"target":34962
		},
		{
			"buffer":0,
			"byteLength":72952,
			"byteOffset":1060184,
			"target":34962
		},
		{
			"buffer":0,
			"byteLength":72952,
			"byteOffset":1133136,
			"target":34962
		},
		{
			"buffer":0,
			"byteLength":109428,
			"byteOffset":1206088,
			"target":34962
		},
		{
			"buffer":0,
			"byteLength":109428,
			"byteOffset":1315516,
			"target":34962
		},
		{
			"buffer":0,
			"byteLength":72952,
			"byteOffset":1424944,
			"target":34962
		},
		{
			"buffer":0,
			"byteLength":72952,
			"byteOffset":1497896,
			"target":34962
		},
		{
			"buffer":0,
			"byteLength":69600,
			"byteOffset":1570848,
			"target":34963
		},
		{
			"buffer":0,
			"byteLength":21636,
			"byteOffset":1640448,
			"target":34962
		},
		{
			"buffer":0,
			"byteLength":21636,
			"byteOffset":1662084,
			"target":34962
		},
		{
			"buffer":0,
			"byteLength":14424,
			"byteOffset":1683720,
			"target":34962
		},
		{
			"buffer":0,
			"byteLength":14424,
			"byteOffset":1698144,
			"target":34962
		},
		{
			"buffer":0,
			"byteLength":14484,
			"byteOffset":1712568,
			"target":34963
		},
		{
			"buffer":0,
			"byteLength":6372,
			"byteOffset":1727052,
			"target":34962
		},
		{
			"buffer":0,
			"byteLength":6372,
			"byteOffset":1733424,
			"target":34962
		},
		{
			"buffer":0,
			"byteLength":4248,
			"byteOffset":1739796,
			"target":34962
		},
		{
			"buffer":0,
			"byteLength":4248,
			"byteOffset":1744044,
			"target":34962
		},
		{
			"buffer":0,
			"byteLength":1596,
			"byteOffset":1748292,
			"target":34963
		},
		{
			"buffer":0,
			"byteLength":288,
			"byteOffset":1749888,
			"target":34962
		},
		{
			"buffer":0,
			"byteLength":288,
			"byteOffset":1750176,
			"target":34962
		},
		{
			"buffer":0,
			"byteLength":192,
			"byteOffset":1750464,
			"target":34962
		},
		{
			"buffer":0,
			"byteLength":192,
			"byteOffset":1750656,
			"target":34962
		},
		{
			"buffer":0,
			"byteLength":72,
			"byteOffset":1750848,
			"target":34963
		}
	],
	"samplers":[
		{
			"magFilter":9729,
			"minFilter":9987
		}
	],
	"buffers":[
		{
			"byteLength":1750920,
			"uri":"Bed1.bin"
		}
	]
}
