{
	"asset":{
		"generator":"Khronos glTF Blender I/O v4.2.60",
		"version":"2.0"
	},
	"scene":0,
	"scenes":[
		{
			"name":"Scene",
			"nodes":[
				3,
				6,
				11
			]
		}
	],
	"nodes":[
		{
			"name":"Chair_Legs",
			"rotation":[
				-0.03045818954706192,
				-0.039762530475854874,
				0.006091143935918808,
				0.9987263679504395
			],
			"scale":[
				0.036578211933374405,
				0.03657044470310211,
				0.03657378628849983
			],
			"translation":[
				-0.0022300006821751595,
				-0.0019999996293336153,
				0.7732299566268921
			]
		},
		{
			"name":"Chair_Sit",
			"rotation":[
				-0.038417331874370575,
				0,
				0,
				0.9992618560791016
			],
			"scale":[
				0.16919000446796417,
				0.16918940842151642,
				0.16918940842151642
			],
			"translation":[
				-0.0022300006821751595,
				0.4276899993419647,
				1.1804497241973877
			]
		},
		{
			"children":[
				0,
				1
			],
			"name":"Root"
		},
		{
			"children":[
				2
			],
			"name":"Sketchfab_model",
			"rotation":[
				-0.70710688829422,
				0,
				0,
				0.7071066498756409
			],
			"scale":[
				1.06607186794281,
				1.066071629524231,
				1.066071629524231
			]
		},
		{
			"name":"RootNode"
		},
		{
			"children":[
				4
			],
			"name":"6286f6b26fbe4d69bc7f4671ead3e21b.fbx",
			"rotation":[
				0.70710688829422,
				0,
				0,
				0.7071066498756409
			],
			"scale":[
				0.009999998845160007,
				0.009999998845160007,
				0.009999998845160007
			]
		},
		{
			"children":[
				5
			],
			"name":"Sketchfab_model.001",
			"rotation":[
				-0.70710688829422,
				0,
				0,
				0.7071066498756409
			],
			"scale":[
				0.802089273929596,
				0.8020892143249512,
				0.8020892143249512
			]
		},
		{
			"mesh":0,
			"name":"Cube.003_Material.005_0"
		},
		{
			"children":[
				7
			],
			"name":"Cube.001",
			"rotation":[
				-0.70710688829422,
				0,
				0,
				0.7071066498756409
			],
			"scale":[
				106.21492004394531,
				118.99298095703125,
				108.50890350341797
			],
			"translation":[
				-4.507309913635254,
				38.67107009887695,
				0.7805060744285583
			]
		},
		{
			"children":[
				8
			],
			"name":"RootNode.001"
		},
		{
			"children":[
				9
			],
			"name":"6286f6b26fbe4d69bc7f4671ead3e21b.fbx.001",
			"rotation":[
				0.70710688829422,
				0,
				0,
				0.7071066498756409
			],
			"scale":[
				0.009999998845160007,
				0.009999998845160007,
				0.009999998845160007
			]
		},
		{
			"children":[
				10
			],
			"name":"Sketchfab_model.002",
			"rotation":[
				-0.70710688829422,
				0,
				0,
				0.7071066498756409
			],
			"scale":[
				0.802089273929596,
				0.8020892143249512,
				0.8020892143249512
			]
		}
	],
	"materials":[
		{
			"doubleSided":true,
			"name":"Material.005",
			"pbrMetallicRoughness":{
				"metallicFactor":0
			}
		}
	],
	"meshes":[
		{
			"name":"Cube.003_Material.005_0.001",
			"primitives":[
				{
					"attributes":{
						"POSITION":0,
						"NORMAL":1,
						"TEXCOORD_0":2,
						"TEXCOORD_1":3
					},
					"indices":4,
					"material":0
				}
			]
		}
	],
	"accessors":[
		{
			"bufferView":0,
			"componentType":5126,
			"count":5681,
			"max":[
				0.41811224818229675,
				0.4949149489402771,
				0.6141301393508911
			],
			"min":[
				-0.4181126654148102,
				-0.492911159992218,
				-0.355026513338089
			],
			"type":"VEC3"
		},
		{
			"bufferView":1,
			"componentType":5126,
			"count":5681,
			"type":"VEC3"
		},
		{
			"bufferView":2,
			"componentType":5126,
			"count":5681,
			"type":"VEC2"
		},
		{
			"bufferView":3,
			"componentType":5126,
			"count":5681,
			"type":"VEC2"
		},
		{
			"bufferView":4,
			"componentType":5123,
			"count":27420,
			"type":"SCALAR"
		}
	],
	"bufferViews":[
		{
			"buffer":0,
			"byteLength":68172,
			"byteOffset":0,
			"target":34962
		},
		{
			"buffer":0,
			"byteLength":68172,
			"byteOffset":68172,
			"target":34962
		},
		{
			"buffer":0,
			"byteLength":45448,
			"byteOffset":136344,
			"target":34962
		},
		{
			"buffer":0,
			"byteLength":45448,
			"byteOffset":181792,
			"target":34962
		},
		{
			"buffer":0,
			"byteLength":54840,
			"byteOffset":227240,
			"target":34963
		}
	],
	"buffers":[
		{
			"byteLength":282080,
			"uri":"scene.bin"
		}
	]
}
