{
	"asset":{
		"generator":"Khronos glTF Blender I/O v4.2.60",
		"version":"2.0"
	},
	"scene":0,
	"scenes":[
		{
			"name":"Scene",
			"nodes":[
				4
			]
		}
	],
	"nodes":[
		{
			"mesh":0,
			"name":"Cube.003_Material.005_0"
		},
		{
			"children":[
				0
			],
			"name":"Cube.003",
			"rotation":[
				-0.70710688829422,
				0,
				0,
				0.7071066498756409
			],
			"scale":[
				106.21490478515625,
				118.99298858642578,
				108.5089111328125
			],
			"translation":[
				-4.5073089599609375,
				38.67107009887695,
				0.7805060148239136
			]
		},
		{
			"children":[
				1
			],
			"name":"RootNode"
		},
		{
			"children":[
				2
			],
			"name":"6286f6b26fbe4d69bc7f4671ead3e21b.fbx",
			"rotation":[
				0.70710688829422,
				0,
				0,
				0.7071066498756409
			],
			"scale":[
				0.009999999776482582,
				0.010000000707805157,
				0.010000000707805157
			]
		},
		{
			"children":[
				3
			],
			"name":"Sketchfab_model",
			"rotation":[
				-0.70710688829422,
				0,
				0,
				0.7071066498756409
			],
			"scale":[
				0.802089273929596,
				0.8020893335342407,
				0.8020893335342407
			]
		}
	],
	"materials":[
		{
			"doubleSided":true,
			"name":"Material.005",
			"normalTexture":{
				"index":0
			},
			"pbrMetallicRoughness":{
				"baseColorTexture":{
					"index":1
				},
				"metallicFactor":0,
				"metallicRoughnessTexture":{
					"index":2
				}
			}
		}
	],
	"meshes":[
		{
			"name":"Cube.003_Material.005_0",
			"primitives":[
				{
					"attributes":{
						"POSITION":0,
						"NORMAL":1,
						"TEXCOORD_0":2,
						"TEXCOORD_1":3
					},
					"indices":4,
					"material":0
				}
			]
		}
	],
	"textures":[
		{
			"sampler":0,
			"source":0
		},
		{
			"sampler":0,
			"source":1
		},
		{
			"sampler":0,
			"source":2
		}
	],
	"images":[
		{
			"mimeType":"image/png",
			"name":"Image_2",
			"uri":"Image_2.png"
		},
		{
			"mimeType":"image/png",
			"name":"Image_0",
			"uri":"Image_0.png"
		},
		{
			"mimeType":"image/png",
			"name":"Image_1",
			"uri":"Image_1.png"
		}
	],
	"accessors":[
		{
			"bufferView":0,
			"componentType":5126,
			"count":5681,
			"max":[
				0.41811224818229675,
				0.4949149489402771,
				0.6141301393508911
			],
			"min":[
				-0.4181126654148102,
				-0.492911159992218,
				-0.355026513338089
			],
			"type":"VEC3"
		},
		{
			"bufferView":1,
			"componentType":5126,
			"count":5681,
			"type":"VEC3"
		},
		{
			"bufferView":2,
			"componentType":5126,
			"count":5681,
			"type":"VEC2"
		},
		{
			"bufferView":3,
			"componentType":5126,
			"count":5681,
			"type":"VEC2"
		},
		{
			"bufferView":4,
			"componentType":5123,
			"count":27420,
			"type":"SCALAR"
		}
	],
	"bufferViews":[
		{
			"buffer":0,
			"byteLength":68172,
			"byteOffset":0,
			"target":34962
		},
		{
			"buffer":0,
			"byteLength":68172,
			"byteOffset":68172,
			"target":34962
		},
		{
			"buffer":0,
			"byteLength":45448,
			"byteOffset":136344,
			"target":34962
		},
		{
			"buffer":0,
			"byteLength":45448,
			"byteOffset":181792,
			"target":34962
		},
		{
			"buffer":0,
			"byteLength":54840,
			"byteOffset":227240,
			"target":34963
		}
	],
	"samplers":[
		{
			"magFilter":9729,
			"minFilter":9987
		}
	],
	"buffers":[
		{
			"byteLength":282080,
			"uri":"chair4.bin"
		}
	]
}
