{
	"asset":{
		"generator":"Khronos glTF Blender I/O v4.2.60",
		"version":"2.0"
	},
	"scene":0,
	"scenes":[
		{
			"name":"Scene",
			"nodes":[
				9
			]
		}
	],
	"nodes":[
		{
			"mesh":0,
			"name":"Material3.001"
		},
		{
			"name":"ID1",
			"translation":[
				1.2630211131181568e-05,
				-1.71661376953125e-05,
				3.0517578125e-05
			]
		},
		{
			"children":[
				1
			],
			"name":"skp_camera_Last_Saved_SketchUp_View",
			"rotation":[
				0.5121493339538574,
				0.1446756273508072,
				0.2301536500453949,
				0.814740002155304
			],
			"translation":[
				111.3551025390625,
				-159.16319274902344,
				126.44001770019531
			]
		},
		{
			"name":"ID2",
			"translation":[
				-2.2834465198684484e-06,
				-5.7220458984375e-06,
				4.9591064453125e-05
			]
		},
		{
			"children":[
				3
			],
			"name":"skp_camera_Scene_1",
			"rotation":[
				0.4854970872402191,
				0.15292833745479584,
				0.25860700011253357,
				0.8209920525550842
			],
			"translation":[
				117.4844970703125,
				-148.65969848632812,
				136.9239044189453
			]
		},
		{
			"name":"ID3",
			"translation":[
				-8.959166734712198e-06,
				0,
				1.52587890625e-05
			]
		},
		{
			"children":[
				5
			],
			"name":"skp_camera_Scene_2",
			"rotation":[
				0.4854970872402191,
				0.15292833745479584,
				0.25860700011253357,
				0.8209920525550842
			],
			"translation":[
				120.23159790039062,
				-146.7384033203125,
				136.9239044189453
			]
		},
		{
			"children":[
				2,
				4,
				6
			],
			"name":"SketchUp"
		},
		{
			"children":[
				0,
				7
			],
			"name":"Collada visual scene group"
		},
		{
			"children":[
				8
			],
			"name":"Sketchfab_model",
			"rotation":[
				-0.70710688829422,
				0,
				0,
				0.7071066498756409
			]
		}
	],
	"materials":[
		{
			"name":"material",
			"pbrMetallicRoughness":{
				"baseColorFactor":[
					0.6431369781494141,
					0.6980389952659607,
					0.7333329916000366,
					1
				],
				"metallicFactor":0,
				"roughnessFactor":0.6000000238418579
			}
		},
		{
			"name":"Color_M06",
			"pbrMetallicRoughness":{
				"baseColorFactor":[
					0.33725500106811523,
					0.33725500106811523,
					0.33725500106811523,
					1
				],
				"metallicFactor":0,
				"roughnessFactor":0.6000000238418579
			}
		},
		{
			"name":"Color_M07",
			"pbrMetallicRoughness":{
				"baseColorFactor":[
					0.22745099663734436,
					0.22745099663734436,
					0.22745099663734436,
					1
				],
				"metallicFactor":0,
				"roughnessFactor":0.6000000238418579
			}
		},
		{
			"name":"material_4",
			"pbrMetallicRoughness":{
				"metallicFactor":0,
				"roughnessFactor":0.6000000238418579
			}
		}
	],
	"meshes":[
		{
			"name":"Material3.001",
			"primitives":[
				{
					"attributes":{
						"POSITION":0,
						"NORMAL":1,
						"TEXCOORD_0":2
					},
					"indices":3,
					"material":0
				},
				{
					"attributes":{
						"POSITION":4,
						"NORMAL":5,
						"TEXCOORD_0":6
					},
					"indices":7,
					"material":1
				},
				{
					"attributes":{
						"POSITION":8,
						"NORMAL":9,
						"TEXCOORD_0":10
					},
					"indices":11,
					"material":2
				},
				{
					"attributes":{
						"POSITION":12,
						"NORMAL":13,
						"TEXCOORD_0":14
					},
					"indices":15,
					"material":3
				}
			]
		}
	],
	"accessors":[
		{
			"bufferView":0,
			"componentType":5126,
			"count":416,
			"max":[
				25.984249114990234,
				13.38582992553711,
				62.2834587097168
			],
			"min":[
				0,
				0,
				0
			],
			"type":"VEC3"
		},
		{
			"bufferView":1,
			"componentType":5126,
			"count":416,
			"type":"VEC3"
		},
		{
			"bufferView":2,
			"componentType":5126,
			"count":416,
			"type":"VEC2"
		},
		{
			"bufferView":3,
			"componentType":5123,
			"count":744,
			"type":"SCALAR"
		},
		{
			"bufferView":4,
			"componentType":5126,
			"count":932,
			"max":[
				25.984251022338867,
				13.38582992553711,
				62.2834587097168
			],
			"min":[
				0,
				0,
				0
			],
			"type":"VEC3"
		},
		{
			"bufferView":5,
			"componentType":5126,
			"count":932,
			"type":"VEC3"
		},
		{
			"bufferView":6,
			"componentType":5126,
			"count":932,
			"type":"VEC2"
		},
		{
			"bufferView":7,
			"componentType":5123,
			"count":1476,
			"type":"SCALAR"
		},
		{
			"bufferView":8,
			"componentType":5126,
			"count":240,
			"max":[
				25.984254837036133,
				13.385821342468262,
				62.992122650146484
			],
			"min":[
				2.0523072130629316e-09,
				-3.742981036225501e-08,
				3.8188979625701904
			],
			"type":"VEC3"
		},
		{
			"bufferView":9,
			"componentType":5126,
			"count":240,
			"type":"VEC3"
		},
		{
			"bufferView":10,
			"componentType":5126,
			"count":240,
			"type":"VEC2"
		},
		{
			"bufferView":11,
			"componentType":5123,
			"count":360,
			"type":"SCALAR"
		},
		{
			"bufferView":12,
			"componentType":5126,
			"count":120,
			"max":[
				25.984254837036133,
				13.385821342468262,
				62.992122650146484
			],
			"min":[
				2.0523072130629316e-09,
				-3.742981036225501e-08,
				4.409449100494385
			],
			"type":"VEC3"
		},
		{
			"bufferView":13,
			"componentType":5126,
			"count":120,
			"type":"VEC3"
		},
		{
			"bufferView":14,
			"componentType":5126,
			"count":120,
			"type":"VEC2"
		},
		{
			"bufferView":15,
			"componentType":5123,
			"count":180,
			"type":"SCALAR"
		}
	],
	"bufferViews":[
		{
			"buffer":0,
			"byteLength":4992,
			"byteOffset":0,
			"target":34962
		},
		{
			"buffer":0,
			"byteLength":4992,
			"byteOffset":4992,
			"target":34962
		},
		{
			"buffer":0,
			"byteLength":3328,
			"byteOffset":9984,
			"target":34962
		},
		{
			"buffer":0,
			"byteLength":1488,
			"byteOffset":13312,
			"target":34963
		},
		{
			"buffer":0,
			"byteLength":11184,
			"byteOffset":14800,
			"target":34962
		},
		{
			"buffer":0,
			"byteLength":11184,
			"byteOffset":25984,
			"target":34962
		},
		{
			"buffer":0,
			"byteLength":7456,
			"byteOffset":37168,
			"target":34962
		},
		{
			"buffer":0,
			"byteLength":2952,
			"byteOffset":44624,
			"target":34963
		},
		{
			"buffer":0,
			"byteLength":2880,
			"byteOffset":47576,
			"target":34962
		},
		{
			"buffer":0,
			"byteLength":2880,
			"byteOffset":50456,
			"target":34962
		},
		{
			"buffer":0,
			"byteLength":1920,
			"byteOffset":53336,
			"target":34962
		},
		{
			"buffer":0,
			"byteLength":720,
			"byteOffset":55256,
			"target":34963
		},
		{
			"buffer":0,
			"byteLength":1440,
			"byteOffset":55976,
			"target":34962
		},
		{
			"buffer":0,
			"byteLength":1440,
			"byteOffset":57416,
			"target":34962
		},
		{
			"buffer":0,
			"byteLength":960,
			"byteOffset":58856,
			"target":34962
		},
		{
			"buffer":0,
			"byteLength":360,
			"byteOffset":59816,
			"target":34963
		}
	],
	"buffers":[
		{
			"byteLength":60176,
			"uri":"scene.bin"
		}
	]
}
