{
	"asset":{
		"generator":"Khronos glTF Blender I/O v4.1.62",
		"version":"2.0"
	},
	"extensionsUsed":[
		"KHR_materials_transmission",
		"KHR_materials_ior"
	],
	"scene":0,
	"scenes":[
		{
			"name":"Scene",
			"nodes":[
				0
			]
		}
	],
	"nodes":[
		{
			"mesh":0,
			"name":"Cube",
			"scale":[
				2.4714558124542236,
				9.68115234375,
				6.388089656829834
			],
			"translation":[
				0,
				10.146822929382324,
				0
			]
		}
	],
	"materials":[
		{
			"doubleSided":true,
			"name":"Material.001",
			"pbrMetallicRoughness":{
				"baseColorFactor":[
					0.06680658459663391,
					0.06680658459663391,
					0.06680658459663391,
					1
				],
				"metallicFactor":0,
				"roughnessFactor":0.4000000059604645
			}
		},
		{
			"doubleSided":true,
			"extensions":{
				"KHR_materials_transmission":{
					"transmissionFactor":1
				},
				"KHR_materials_ior":{
					"ior":1.4500000476837158
				}
			},
			"name":"Material.002",
			"pbrMetallicRoughness":{
				"baseColorFactor":[
					0.800000011920929,
					0.800000011920929,
					0.800000011920929,
					1
				],
				"metallicFactor":0,
				"roughnessFactor":0
			}
		},
		{
			"doubleSided":true,
			"name":"Material.003",
			"pbrMetallicRoughness":{
				"baseColorFactor":[
					0.3108120560646057,
					0.3108120560646057,
					0.3108120560646057,
					1
				],
				"roughnessFactor":0.5
			}
		}
	],
	"meshes":[
		{
			"name":"Cube.001",
			"primitives":[
				{
					"attributes":{
						"POSITION":0,
						"NORMAL":1,
						"TEXCOORD_0":2
					},
					"indices":3,
					"material":0
				},
				{
					"attributes":{
						"POSITION":4,
						"NORMAL":5,
						"TEXCOORD_0":6
					},
					"indices":7,
					"material":1
				},
				{
					"attributes":{
						"POSITION":8,
						"NORMAL":9,
						"TEXCOORD_0":10
					},
					"indices":11,
					"material":2
				}
			]
		}
	],
	"accessors":[
		{
			"bufferView":0,
			"componentType":5126,
			"count":571,
			"max":[
				1,
				1,
				1.0000001192092896
			],
			"min":[
				-1.0995502471923828,
				-1.04034423828125,
				-1.0000001192092896
			],
			"type":"VEC3"
		},
		{
			"bufferView":1,
			"componentType":5126,
			"count":571,
			"type":"VEC3"
		},
		{
			"bufferView":2,
			"componentType":5126,
			"count":571,
			"type":"VEC2"
		},
		{
			"bufferView":3,
			"componentType":5123,
			"count":1113,
			"type":"SCALAR"
		},
		{
			"bufferView":4,
			"componentType":5126,
			"count":4,
			"max":[
				-1.0981028079986572,
				0.8775063157081604,
				-0.13973721861839294
			],
			"min":[
				-1.0981040000915527,
				-0.8759936094284058,
				-0.8125299215316772
			],
			"type":"VEC3"
		},
		{
			"bufferView":5,
			"componentType":5126,
			"count":4,
			"type":"VEC3"
		},
		{
			"bufferView":6,
			"componentType":5126,
			"count":4,
			"type":"VEC2"
		},
		{
			"bufferView":7,
			"componentType":5123,
			"count":6,
			"type":"SCALAR"
		},
		{
			"bufferView":8,
			"componentType":5126,
			"count":2037,
			"max":[
				0.590226948261261,
				0.7615398168563843,
				0.08082221448421478
			],
			"min":[
				-1.345589518547058,
				-0.1570855677127838,
				-0.9675719738006592
			],
			"type":"VEC3"
		},
		{
			"bufferView":9,
			"componentType":5126,
			"count":2037,
			"type":"VEC3"
		},
		{
			"bufferView":10,
			"componentType":5126,
			"count":2037,
			"type":"VEC2"
		},
		{
			"bufferView":11,
			"componentType":5123,
			"count":3453,
			"type":"SCALAR"
		}
	],
	"bufferViews":[
		{
			"buffer":0,
			"byteLength":6852,
			"byteOffset":0,
			"target":34962
		},
		{
			"buffer":0,
			"byteLength":6852,
			"byteOffset":6852,
			"target":34962
		},
		{
			"buffer":0,
			"byteLength":4568,
			"byteOffset":13704,
			"target":34962
		},
		{
			"buffer":0,
			"byteLength":2226,
			"byteOffset":18272,
			"target":34963
		},
		{
			"buffer":0,
			"byteLength":48,
			"byteOffset":20500,
			"target":34962
		},
		{
			"buffer":0,
			"byteLength":48,
			"byteOffset":20548,
			"target":34962
		},
		{
			"buffer":0,
			"byteLength":32,
			"byteOffset":20596,
			"target":34962
		},
		{
			"buffer":0,
			"byteLength":12,
			"byteOffset":20628,
			"target":34963
		},
		{
			"buffer":0,
			"byteLength":24444,
			"byteOffset":20640,
			"target":34962
		},
		{
			"buffer":0,
			"byteLength":24444,
			"byteOffset":45084,
			"target":34962
		},
		{
			"buffer":0,
			"byteLength":16296,
			"byteOffset":69528,
			"target":34962
		},
		{
			"buffer":0,
			"byteLength":6906,
			"byteOffset":85824,
			"target":34963
		}
	],
	"buffers":[
		{
			"byteLength":92732,
			"uri":"Almirah1.bin"
		}
	]
}
