{
  "accessors": [
    {
      "bufferView": 1,
      "componentType": 5126,
      "count": 30381,
      "max": [
        57.3542594909668,
        17.56987953186035,
        50.95658874511719
      ],
      "min": [
        -57.354251861572266,
        -26.048320770263672,
        14.934590339660645
      ],
      "type": "VEC3"
    },
    {
      "bufferView": 1,
      "byteOffset": 364572,
      "componentType": 5126,
      "count": 30381,
      "max": [
        0.9999932050704956,
        0.9999979734420776,
        1.0
      ],
      "min": [
        -0.99998539686203,
        -1.0,
        -1.0
      ],
      "type": "VEC3"
    },
    {
      "bufferView": 0,
      "componentType": 5125,
      "count": 174186,
      "type": "SCALAR"
    },
    {
      "bufferView": 1,
      "byteOffset": 729144,
      "componentType": 5126,
      "count": 464,
      "max": [
        54.58061218261719,
        11.478830337524414,
        15.207401275634766
      ],
      "min": [
        -54.21831130981445,
        -21.909809112548828,
        12.913373947143555
      ],
      "type": "VEC3"
    },
    {
      "bufferView": 1,
      "byteOffset": 734712,
      "componentType": 5126,
      "count": 464,
      "max": [
        1.0,
        1.0,
        1.0
      ],
      "min": [
        -0.985370397567749,
        -1.0,
        -1.0
      ],
      "type": "VEC3"
    },
    {
      "bufferView": 0,
      "byteOffset": 696744,
      "componentType": 5125,
      "count": 528,
      "type": "SCALAR"
    }
  ],
  "asset": {
    "extras": {
      "author": "Snowism (https://sketchfab.com/snowvy)",
      "license": "CC-BY-4.0 (http://creativecommons.org/licenses/by/4.0/)",
      "source": "https://sketchfab.com/3d-models/sofa-1-3dx-6e0045e2b6a142658d561797d9f63669",
      "title": "Sofa 1 | 3DX"
    },
    "generator": "Sketchfab-15.86.0",
    "version": "2.0"
  },
  "bufferViews": [
    {
      "buffer": 0,
      "byteLength": 698856,
      "name": "floatBufferViews",
      "target": 34963
    },
    {
      "buffer": 0,
      "byteLength": 740280,
      "byteOffset": 698856,
      "byteStride": 12,
      "name": "floatBufferViews",
      "target": 34962
    }
  ],
  "buffers": [
    {
      "byteLength": 1439136,
      "uri": "scene.bin"
    }
  ],
  "materials": [
    {
      "name": "material",
      "pbrMetallicRoughness": {
        "baseColorFactor": [
          0.6125328879032428,
          0.6125328879032428,
          0.6125328879032428,
          1.0
        ]
      }
    },
    {
      "name": "material_1",
      "pbrMetallicRoughness": {
        "baseColorFactor": [
          0.117647,
          0.117647,
          0.117647,
          1.0
        ],
        "metallicFactor": 0.0,
        "roughnessFactor": 0.6
      }
    }
  ],
  "meshes": [
    {
      "name": "Material2",
      "primitives": [
        {
          "attributes": {
            "NORMAL": 1,
            "POSITION": 0
          },
          "indices": 2,
          "material": 0,
          "mode": 4
        }
      ]
    },
    {
      "name": "Material2",
      "primitives": [
        {
          "attributes": {
            "NORMAL": 4,
            "POSITION": 3
          },
          "indices": 5,
          "material": 1,
          "mode": 4
        }
      ]
    }
  ],
  "nodes": [
    {
      "children": [
        1
      ],
      "matrix": [
        1.0,
        0.0,
        0.0,
        0.0,
        0.0,
        2.220446049250313e-16,
        -1.0,
        0.0,
        0.0,
        1.0,
        2.220446049250313e-16,
        0.0,
        0.0,
        0.0,
        0.0,
        1.0
      ],
      "name": "Sketchfab_model"
    },
    {
      "children": [
        2,
        3,
        4
      ],
      "name": "Collada visual scene group"
    },
    {
      "mesh": 0,
      "name": "Material2"
    },
    {
      "mesh": 1,
      "name": "Material2"
    },
    {
      "children": [
        5
      ],
      "name": "SketchUp"
    },
    {
      "children": [
        6
      ],
      "matrix": [
        0.7233173,
        -0.6905158,
        2.775558e-17,
        0.0,
        0.2281366,
        0.2389737,
        0.943846,
        0.0,
        -0.6517406,
        -0.6827002,
        0.3303857,
        0.0,
        -131.7259,
        -104.3556,
        82.05947,
        1.0
      ],
      "name": "skp_camera_Last_Saved_SketchUp_View"
    },
    {
      "name": "ID1"
    }
  ],
  "scene": 0,
  "scenes": [
    {
      "name": "Sketchfab_Scene",
      "nodes": [
        0
      ]
    }
  ]
}
