{
	"asset":{
		"generator":"Khronos glTF Blender I/O v4.1.62",
		"version":"2.0"
	},
	"scene":0,
	"scenes":[
		{
			"name":"Scene",
			"nodes":[
				0,
				1
			]
		}
	],
	"nodes":[
		{
			"mesh":0,
			"name":"barstool",
			"scale":[
				0.009999999776482582,
				0.009999999776482582,
				0.009999999776482582
			],
			"translation":[
				-5.834984767716378e-05,
				0.5250836610794067,
				0.008934871293604374
			]
		},
		{
			"mesh":1,
			"name":"Cube.001",
			"scale":[
				0.007164919748902321,
				0.16726292669773102,
				0.007164919748902321
			],
			"translation":[
				-0.06300244480371475,
				0.3545413613319397,
				0.08943347632884979
			]
		}
	],
	"materials":[
		{
			"doubleSided":true,
			"name":"RAL Classic Yellow hues",
			"pbrMetallicRoughness":{
				"metallicFactor":0,
				"roughnessFactor":0.5
			}
		},
		{
			"doubleSided":true,
			"name":"Wood light",
			"normalTexture":{
				"index":0,
				"texCoord":1
			},
			"pbrMetallicRoughness":{
				"baseColorTexture":{
					"index":1,
					"texCoord":1
				},
				"metallicFactor":0,
				"metallicRoughnessTexture":{
					"index":2,
					"texCoord":1
				}
			}
		}
	],
	"meshes":[
		{
			"name":"Mesh",
			"primitives":[
				{
					"attributes":{
						"POSITION":0,
						"NORMAL":1,
						"TEXCOORD_0":2,
						"TEXCOORD_1":3
					},
					"indices":4,
					"material":0
				}
			]
		},
		{
			"name":"Cube.002",
			"primitives":[
				{
					"attributes":{
						"POSITION":5,
						"NORMAL":6,
						"TEXCOORD_0":7,
						"TEXCOORD_1":8
					},
					"indices":9,
					"material":1
				}
			]
		}
	],
	"textures":[
		{
			"sampler":0,
			"source":0
		},
		{
			"sampler":0,
			"source":1
		},
		{
			"sampler":0,
			"source":2
		}
	],
	"images":[
		{
			"mimeType":"image/jpeg",
			"name":"wood_normal",
			"uri":"wood_normal.jpg"
		},
		{
			"mimeType":"image/jpeg",
			"name":"wood_diffuse",
			"uri":"wood_diffuse.jpg"
		},
		{
			"mimeType":"image/png",
			"name":"wood_roughness",
			"uri":"wood_roughness.png"
		}
	],
	"accessors":[
		{
			"bufferView":0,
			"componentType":5126,
			"count":7001,
			"max":[
				13.369548797607422,
				2.421255111694336,
				12.965679168701172
			],
			"min":[
				-13.357881546020508,
				-2.2191333770751953,
				-13.760645866394043
			],
			"type":"VEC3"
		},
		{
			"bufferView":1,
			"componentType":5126,
			"count":7001,
			"type":"VEC3"
		},
		{
			"bufferView":2,
			"componentType":5126,
			"count":7001,
			"type":"VEC2"
		},
		{
			"bufferView":3,
			"componentType":5126,
			"count":7001,
			"type":"VEC2"
		},
		{
			"bufferView":4,
			"componentType":5123,
			"count":33168,
			"type":"SCALAR"
		},
		{
			"bufferView":5,
			"componentType":5126,
			"count":104,
			"max":[
				24.961448669433594,
				2.265141010284424,
				3.5226945877075195
			],
			"min":[
				-1,
				-1.0153112411499023,
				-28.78101348876953
			],
			"type":"VEC3"
		},
		{
			"bufferView":6,
			"componentType":5126,
			"count":104,
			"type":"VEC3"
		},
		{
			"bufferView":7,
			"componentType":5126,
			"count":104,
			"type":"VEC2"
		},
		{
			"bufferView":8,
			"componentType":5126,
			"count":104,
			"type":"VEC2"
		},
		{
			"bufferView":9,
			"componentType":5123,
			"count":180,
			"type":"SCALAR"
		}
	],
	"bufferViews":[
		{
			"buffer":0,
			"byteLength":84012,
			"byteOffset":0,
			"target":34962
		},
		{
			"buffer":0,
			"byteLength":84012,
			"byteOffset":84012,
			"target":34962
		},
		{
			"buffer":0,
			"byteLength":56008,
			"byteOffset":168024,
			"target":34962
		},
		{
			"buffer":0,
			"byteLength":56008,
			"byteOffset":224032,
			"target":34962
		},
		{
			"buffer":0,
			"byteLength":66336,
			"byteOffset":280040,
			"target":34963
		},
		{
			"buffer":0,
			"byteLength":1248,
			"byteOffset":346376,
			"target":34962
		},
		{
			"buffer":0,
			"byteLength":1248,
			"byteOffset":347624,
			"target":34962
		},
		{
			"buffer":0,
			"byteLength":832,
			"byteOffset":348872,
			"target":34962
		},
		{
			"buffer":0,
			"byteLength":832,
			"byteOffset":349704,
			"target":34962
		},
		{
			"buffer":0,
			"byteLength":360,
			"byteOffset":350536,
			"target":34963
		}
	],
	"samplers":[
		{
			"magFilter":9729,
			"minFilter":9987
		}
	],
	"buffers":[
		{
			"byteLength":350896,
			"uri":"scene.bin"
		}
	]
}
