{
	"asset":{
		"generator":"Khronos glTF Blender I/O v4.2.60",
		"version":"2.0"
	},
	"scene":0,
	"scenes":[
		{
			"name":"Scene",
			"nodes":[
				3
			]
		}
	],
	"nodes":[
		{
			"mesh":0,
			"name":"Object_3"
		},
		{
			"children":[
				0
			],
			"name":"Object_2"
		},
		{
			"children":[
				1
			],
			"name":"c3c1aaa39efd442bba6bccd21ec33c14.obj.cleaner.gles",
			"translation":[
				-13.725948333740234,
				-13.72595500946045,
				-0.6508809924125671
			]
		},
		{
			"children":[
				2
			],
			"name":"Sketchfab_model",
			"rotation":[
				-0.70710688829422,
				0,
				0,
				0.7071066498756409
			]
		}
	],
	"materials":[
		{
			"doubleSided":true,
			"emissiveFactor":[
				1,
				1,
				1
			],
			"name":"material_0"
		}
	],
	"meshes":[
		{
			"name":"Object_0",
			"primitives":[
				{
					"attributes":{
						"POSITION":0,
						"NORMAL":1,
						"TEXCOORD_0":2
					},
					"indices":3,
					"material":0
				}
			]
		}
	],
	"accessors":[
		{
			"bufferView":0,
			"componentType":5126,
			"count":1834,
			"max":[
				27.451900482177734,
				27.451892852783203,
				46.68717956542969
			],
			"min":[
				0,
				0,
				0
			],
			"type":"VEC3"
		},
		{
			"bufferView":1,
			"componentType":5126,
			"count":1834,
			"type":"VEC3"
		},
		{
			"bufferView":2,
			"componentType":5126,
			"count":1834,
			"type":"VEC2"
		},
		{
			"bufferView":3,
			"componentType":5123,
			"count":7665,
			"type":"SCALAR"
		}
	],
	"bufferViews":[
		{
			"buffer":0,
			"byteLength":22008,
			"byteOffset":0,
			"target":34962
		},
		{
			"buffer":0,
			"byteLength":22008,
			"byteOffset":22008,
			"target":34962
		},
		{
			"buffer":0,
			"byteLength":14672,
			"byteOffset":44016,
			"target":34962
		},
		{
			"buffer":0,
			"byteLength":15330,
			"byteOffset":58688,
			"target":34963
		}
	],
	"buffers":[
		{
			"byteLength":74020,
			"uri":"scene.bin"
		}
	]
}
