{
	"asset":{
		"generator":"Khronos glTF Blender I/O v4.2.60",
		"version":"2.0"
	},
	"extensionsUsed":[
		"KHR_materials_specular",
		"KHR_materials_ior"
	],
	"scene":0,
	"scenes":[
		{
			"name":"Scene",
			"nodes":[
				4
			]
		}
	],
	"nodes":[
		{
			"mesh":0,
			"name":"Object_4"
		},
		{
			"children":[
				0
			],
			"name":"Industrial Table_0"
		},
		{
			"children":[
				1
			],
			"name":"GLTF_SceneRootNode",
			"rotation":[
				0.70710688829422,
				0,
				0,
				0.7071066498756409
			]
		},
		{
			"children":[
				2
			],
			"name":"root"
		},
		{
			"children":[
				3
			],
			"name":"Sketchfab_model",
			"rotation":[
				-0.70710688829422,
				0,
				0,
				0.7071066498756409
			]
		}
	],
	"materials":[
		{
			"doubleSided":true,
			"extensions":{
				"KHR_materials_specular":{
					"specularColorFactor":[
						0.2800000011920929,
						0.2800000011920929,
						0.2800000011920929
					]
				},
				"KHR_materials_ior":{
					"ior":1000
				}
			},
			"name":"Table_wood_1",
			"normalTexture":{
				"index":0
			},
			"pbrMetallicRoughness":{
				"baseColorTexture":{
					"index":1
				},
				"metallicFactor":0,
				"roughnessFactor":0.25
			}
		},
		{
			"doubleSided":true,
			"extensions":{
				"KHR_materials_specular":{
					"specularColorTexture":{
						"index":2
					}
				},
				"KHR_materials_ior":{
					"ior":1000
				}
			},
			"name":"Old_Steel",
			"normalTexture":{
				"index":3
			},
			"pbrMetallicRoughness":{
				"baseColorFactor":[
					0.033519867807626724,
					0.033519867807626724,
					0.033519867807626724,
					1
				],
				"metallicFactor":0,
				"metallicRoughnessTexture":{
					"index":4
				}
			}
		}
	],
	"meshes":[
		{
			"name":"Object_0",
			"primitives":[
				{
					"attributes":{
						"POSITION":0,
						"NORMAL":1,
						"TEXCOORD_0":2
					},
					"indices":3,
					"material":0
				},
				{
					"attributes":{
						"POSITION":4,
						"NORMAL":5,
						"TEXCOORD_0":6
					},
					"indices":7,
					"material":1
				}
			]
		}
	],
	"textures":[
		{
			"sampler":0,
			"source":0
		},
		{
			"sampler":0,
			"source":1
		},
		{
			"sampler":0,
			"source":2
		},
		{
			"sampler":0,
			"source":3
		},
		{
			"sampler":0,
			"source":4
		}
	],
	"images":[
		{
			"mimeType":"image/jpeg",
			"name":"Table_wood_1_normal",
			"uri":"Table_wood_1_normal.jpg"
		},
		{
			"mimeType":"image/jpeg",
			"name":"Table_wood_1_diffuse",
			"uri":"Table_wood_1_diffuse.jpg"
		},
		{
			"mimeType":"image/png",
			"name":"Old_Steel_specularGlossiness",
			"uri":"Old_Steel_specularGlossiness.png"
		},
		{
			"mimeType":"image/png",
			"name":"Old_Steel_normal",
			"uri":"Old_Steel_normal.png"
		},
		{
			"mimeType":"image/png",
			"name":"Old_Steel_specularGlossiness",
			"uri":"Old_Steel_specularGlossiness-1.png"
		}
	],
	"accessors":[
		{
			"bufferView":0,
			"componentType":5126,
			"count":216,
			"max":[
				0.75,
				0.6749999523162842,
				0.4000000059604645
			],
			"min":[
				-0.75,
				0.6449999809265137,
				-0.4000000059604645
			],
			"type":"VEC3"
		},
		{
			"bufferView":1,
			"componentType":5126,
			"count":216,
			"type":"VEC3"
		},
		{
			"bufferView":2,
			"componentType":5126,
			"count":216,
			"type":"VEC2"
		},
		{
			"bufferView":3,
			"componentType":5123,
			"count":324,
			"type":"SCALAR"
		},
		{
			"bufferView":4,
			"componentType":5126,
			"count":2990,
			"max":[
				0.5871434807777405,
				0.6583189964294434,
				0.298014760017395
			],
			"min":[
				-0.5871434807777405,
				-1.4901161193847656e-08,
				-0.298014760017395
			],
			"type":"VEC3"
		},
		{
			"bufferView":5,
			"componentType":5126,
			"count":2990,
			"type":"VEC3"
		},
		{
			"bufferView":6,
			"componentType":5126,
			"count":2990,
			"type":"VEC2"
		},
		{
			"bufferView":7,
			"componentType":5123,
			"count":4224,
			"type":"SCALAR"
		}
	],
	"bufferViews":[
		{
			"buffer":0,
			"byteLength":2592,
			"byteOffset":0,
			"target":34962
		},
		{
			"buffer":0,
			"byteLength":2592,
			"byteOffset":2592,
			"target":34962
		},
		{
			"buffer":0,
			"byteLength":1728,
			"byteOffset":5184,
			"target":34962
		},
		{
			"buffer":0,
			"byteLength":648,
			"byteOffset":6912,
			"target":34963
		},
		{
			"buffer":0,
			"byteLength":35880,
			"byteOffset":7560,
			"target":34962
		},
		{
			"buffer":0,
			"byteLength":35880,
			"byteOffset":43440,
			"target":34962
		},
		{
			"buffer":0,
			"byteLength":23920,
			"byteOffset":79320,
			"target":34962
		},
		{
			"buffer":0,
			"byteLength":8448,
			"byteOffset":103240,
			"target":34963
		}
	],
	"samplers":[
		{
			"magFilter":9729,
			"minFilter":9987
		}
	],
	"buffers":[
		{
			"byteLength":111688,
			"uri":"scene.bin"
		}
	]
}
