{
	"asset":{
		"generator":"Khronos glTF Blender I/O v4.1.62",
		"version":"2.0"
	},
	"scene":0,
	"scenes":[
		{
			"name":"Scene",
			"nodes":[
				0
			]
		}
	],
	"nodes":[
		{
			"mesh":0,
			"name":"Cilindro",
			"scale":[
				0.08655381202697754,
				0.14255760610103607,
				0.08655381202697754
			],
			"translation":[
				-0.3210899233818054,
				0.037249404937028885,
				-0.6263436675071716
			]
		}
	],
	"materials":[
		{
			"doubleSided":true,
			"name":"Materiais.002",
			"normalTexture":{
				"index":0
			},
			"pbrMetallicRoughness":{
				"baseColorTexture":{
					"index":1
				},
				"metallicFactor":0,
				"metallicRoughnessTexture":{
					"index":2
				}
			}
		},
		{
			"doubleSided":true,
			"name":"tecido",
			"pbrMetallicRoughness":{
				"baseColorFactor":[
					0.27032387256622314,
					0.1394851803779602,
					0.07368888705968857,
					1
				],
				"metallicFactor":0,
				"roughnessFactor":3
			}
		}
	],
	"meshes":[
		{
			"name":"Cilindro",
			"primitives":[
				{
					"attributes":{
						"POSITION":0,
						"NORMAL":1,
						"TEXCOORD_0":2,
						"TEXCOORD_1":3
					},
					"indices":4,
					"material":0
				},
				{
					"attributes":{
						"POSITION":5,
						"NORMAL":6,
						"TEXCOORD_0":7,
						"TEXCOORD_1":8
					},
					"indices":9,
					"material":1
				}
			]
		}
	],
	"textures":[
		{
			"sampler":0,
			"source":0
		},
		{
			"sampler":0,
			"source":1
		},
		{
			"sampler":0,
			"source":2
		}
	],
	"images":[
		{
			"mimeType":"image/jpeg",
			"name":"fine_grained_wood_normal",
			"uri":"fine_grained_wood_normal.jpg"
		},
		{
			"mimeType":"image/jpeg",
			"name":"fine_grained_wood_ao",
			"uri":"fine_grained_wood_ao.jpg"
		},
		{
			"mimeType":"image/png",
			"name":"fine_grained_wood_rough_4k",
			"uri":"fine_grained_wood_rough_4k.png"
		}
	],
	"accessors":[
		{
			"bufferView":0,
			"componentType":5126,
			"count":436,
			"max":[
				7.874453067779541,
				0.5409559607505798,
				15.836549758911133
			],
			"min":[
				-0.552287220954895,
				-0.5538474321365356,
				-0.5686378479003906
			],
			"type":"VEC3"
		},
		{
			"bufferView":1,
			"componentType":5126,
			"count":436,
			"type":"VEC3"
		},
		{
			"bufferView":2,
			"componentType":5126,
			"count":436,
			"type":"VEC2"
		},
		{
			"bufferView":3,
			"componentType":5126,
			"count":436,
			"type":"VEC2"
		},
		{
			"bufferView":4,
			"componentType":5123,
			"count":1044,
			"type":"SCALAR"
		},
		{
			"bufferView":5,
			"componentType":5126,
			"count":2379,
			"max":[
				9.136351585388184,
				6.575717926025391,
				19.007930755615234
			],
			"min":[
				-2.705026388168335,
				0.5091643333435059,
				-3.3988494873046875
			],
			"type":"VEC3"
		},
		{
			"bufferView":6,
			"componentType":5126,
			"count":2379,
			"type":"VEC3"
		},
		{
			"bufferView":7,
			"componentType":5126,
			"count":2379,
			"type":"VEC2"
		},
		{
			"bufferView":8,
			"componentType":5126,
			"count":2379,
			"type":"VEC2"
		},
		{
			"bufferView":9,
			"componentType":5123,
			"count":7920,
			"type":"SCALAR"
		}
	],
	"bufferViews":[
		{
			"buffer":0,
			"byteLength":5232,
			"byteOffset":0,
			"target":34962
		},
		{
			"buffer":0,
			"byteLength":5232,
			"byteOffset":5232,
			"target":34962
		},
		{
			"buffer":0,
			"byteLength":3488,
			"byteOffset":10464,
			"target":34962
		},
		{
			"buffer":0,
			"byteLength":3488,
			"byteOffset":13952,
			"target":34962
		},
		{
			"buffer":0,
			"byteLength":2088,
			"byteOffset":17440,
			"target":34963
		},
		{
			"buffer":0,
			"byteLength":28548,
			"byteOffset":19528,
			"target":34962
		},
		{
			"buffer":0,
			"byteLength":28548,
			"byteOffset":48076,
			"target":34962
		},
		{
			"buffer":0,
			"byteLength":19032,
			"byteOffset":76624,
			"target":34962
		},
		{
			"buffer":0,
			"byteLength":19032,
			"byteOffset":95656,
			"target":34962
		},
		{
			"buffer":0,
			"byteLength":15840,
			"byteOffset":114688,
			"target":34963
		}
	],
	"samplers":[
		{
			"magFilter":9729,
			"minFilter":9987
		}
	],
	"buffers":[
		{
			"byteLength":130528,
			"uri":"Sofa3.bin"
		}
	]
}
